<svg xmlns="http://www.w3.org/2000/svg" xmlns:xlink="http://www.w3.org/1999/xlink" xmlns:lucid="lucid" width="2212" height="1150"><g transform="translate(-179 51.000000000000455)" lucid:page-tab-id="I.-zMS93C..J"><path d="M0-1296h3456v2656H0z" fill="#fff"/><path d="M352 260h128l-32 120H320z" stroke="#000" stroke-width="2" fill="#fff"/><use xlink:href="#a" transform="matrix(1,0,0,1,325,265) translate(47.05499999999999 48.775)"/><use xlink:href="#b" transform="matrix(1,0,0,1,325,265) translate(24.104999999999997 70.375)"/><use xlink:href="#c" transform="matrix(1,0,0,1,325,265) translate(88.00500000000001 70.375)"/><path d="M200 430h400v140H200z" stroke="#000" stroke-width="2" fill="#fff"/><use xlink:href="#d" transform="matrix(1,0,0,1,212,442) translate(61.514814814814855 23.35833333333333)"/><use xlink:href="#e" transform="matrix(1,0,0,1,212,442) translate(198.27777777777777 23.35833333333333)"/><use xlink:href="#f" transform="matrix(1,0,0,1,212,442) translate(169 47.62499999999999)"/><use xlink:href="#g" transform="matrix(1,0,0,1,212,442) translate(151.55 69.225)"/><use xlink:href="#h" transform="matrix(1,0,0,1,212,442) translate(138.6 90.825)"/><use xlink:href="#i" transform="matrix(1,0,0,1,212,442) translate(174.45 90.825)"/><use xlink:href="#j" transform="matrix(1,0,0,1,212,442) translate(165.075 112.42500000000001)"/><path d="M352 620h128l-32 120H320z" stroke="#000" stroke-width="2" fill="#fff"/><use xlink:href="#k" transform="matrix(1,0,0,1,325,625) translate(35.05500000000001 48.775)"/><use xlink:href="#l" transform="matrix(1,0,0,1,325,625) translate(60.05500000000001 48.775)"/><use xlink:href="#m" transform="matrix(1,0,0,1,325,625) translate(46.029999999999994 70.375)"/><path d="M400 382v28.5" stroke="#000" stroke-width="2" fill="none"/><path d="M401 382.03h-2V381h2z" stroke="#000" stroke-width=".05"/><path d="M400 425.76l-4.63-14.26h9.26z" stroke="#000" stroke-width="2"/><path d="M400 572v28.5" stroke="#000" stroke-width="2" fill="none"/><path d="M401 572.03h-2V571h2z" stroke="#000" stroke-width=".05"/><path d="M400 615.76l-4.63-14.26h9.26z" stroke="#000" stroke-width="2"/><path d="M762 40h128l-32 120H730z" stroke="#000" stroke-width="2" fill="#fff"/><use xlink:href="#k" transform="matrix(1,0,0,1,735,45) translate(35.05500000000001 48.775)"/><use xlink:href="#l" transform="matrix(1,0,0,1,735,45) translate(60.05500000000001 48.775)"/><use xlink:href="#m" transform="matrix(1,0,0,1,735,45) translate(46.029999999999994 70.375)"/><path d="M660 220h780v584H660z" stroke="#000" stroke-width="2" fill="#fff"/><use xlink:href="#n" transform="matrix(1,0,0,1,672,232) translate(280.97592592592594 21.511111111111106)"/><use xlink:href="#o" transform="matrix(1,0,0,1,672,232) translate(331.76604938271606 21.511111111111106)"/><use xlink:href="#p" transform="matrix(1,0,0,1,672,232) translate(434.7654320987654 21.511111111111106)"/><path d="M680 278h260v100H680z" stroke="#000" stroke-width="2" fill="#fff"/><use xlink:href="#q" transform="matrix(1,0,0,1,692,290) translate(56.64999999999999 19.15)"/><use xlink:href="#r" transform="matrix(1,0,0,1,692,290) translate(108.55 19.15)"/><use xlink:href="#s" transform="matrix(1,0,0,1,692,290) translate(17.124999999999986 40.75)"/><use xlink:href="#t" transform="matrix(1,0,0,1,692,290) translate(67.975 40.75)"/><use xlink:href="#u" transform="matrix(1,0,0,1,692,290) translate(121.975 40.75)"/><use xlink:href="#v" transform="matrix(1,0,0,1,692,290) translate(146.97500000000002 40.75)"/><use xlink:href="#w" transform="matrix(1,0,0,1,692,290) translate(69.05 62.35)"/><use xlink:href="#x" transform="matrix(1,0,0,1,692,290) translate(104.05 62.35)"/><path d="M680 449.77h260v120H680z" stroke="#000" stroke-width="2" fill="#fff"/><use xlink:href="#y" transform="matrix(1,0,0,1,692,461.7691309095786) translate(58.62499999999999 20.4)"/><use xlink:href="#z" transform="matrix(1,0,0,1,692,461.7691309095786) translate(64.94999999999999 42)"/><use xlink:href="#A" transform="matrix(1,0,0,1,692,461.7691309095786) translate(29.625 63.6)"/><use xlink:href="#B" transform="matrix(1,0,0,1,692,461.7691309095786) translate(64.625 63.6)"/><use xlink:href="#C" transform="matrix(1,0,0,1,692,461.7691309095786) translate(176.375 63.6)"/><use xlink:href="#D" transform="matrix(1,0,0,1,692,461.7691309095786) translate(90.05 85.20000000000002)"/><path d="M680 641.54h260v91.66H680z" stroke="#000" stroke-width="2" fill="#fff"/><use xlink:href="#E" transform="matrix(1,0,0,1,692,653.5382618191572) translate(24.19999999999999 16.525)"/><use xlink:href="#F" transform="matrix(1,0,0,1,692,653.5382618191572) translate(105.1 16.525)"/><use xlink:href="#G" transform="matrix(1,0,0,1,692,653.5382618191572) translate(79.07499999999999 38.125)"/><use xlink:href="#H" transform="matrix(1,0,0,1,692,653.5382618191572) translate(5.85 59.725)"/><use xlink:href="#I" transform="matrix(1,0,0,1,692,653.5382618191572) translate(18 59.725)"/><use xlink:href="#J" transform="matrix(1,0,0,1,692,653.5382618191572) translate(43 59.725)"/><path d="M810 162v96.5" stroke="#000" stroke-width="2" fill="none"/><path d="M811 162.03h-2V161h2z" stroke="#000" stroke-width=".05"/><path d="M810 273.76l-4.63-14.26h9.26z" stroke="#000" stroke-width="2"/><path d="M810 380v50.27" stroke="#000" stroke-width="2" fill="none"/><path d="M811 380.03h-2V379h2z" stroke="#000" stroke-width=".05"/><path d="M810 445.53l-4.63-14.26h9.26z" stroke="#000" stroke-width="2"/><path d="M810 571.77v50.27" stroke="#000" stroke-width="2" fill="none"/><path d="M811 571.8h-2v-1.03h2z" stroke="#000" stroke-width=".05"/><path d="M810 637.3l-4.63-14.26h9.26z" stroke="#000" stroke-width="2"/><path d="M1140 278h260v100h-260z" stroke="#000" stroke-width="2" fill="#fff"/><use xlink:href="#K" transform="matrix(1,0,0,1,1152,290) translate(73.625 14.4)"/><use xlink:href="#L" transform="matrix(1,0,0,1,1152,290) translate(8.649999999999991 36)"/><use xlink:href="#w" transform="matrix(1,0,0,1,1152,290) translate(50.599999999999994 36)"/><use xlink:href="#M" transform="matrix(1,0,0,1,1152,290) translate(85.6 36)"/><use xlink:href="#N" transform="matrix(1,0,0,1,1152,290) translate(144.55 36)"/><use xlink:href="#O" transform="matrix(1,0,0,1,1152,290) translate(3.125 57.6)"/><use xlink:href="#P" transform="matrix(1,0,0,1,1152,290) translate(101.97500000000001 57.6)"/><use xlink:href="#Q" transform="matrix(1,0,0,1,1152,290) translate(173.925 57.6)"/><use xlink:href="#R" transform="matrix(1,0,0,1,1152,290) translate(197.925 57.6)"/><path d="M1140 418h260v60h-260z" stroke="#000" stroke-width="2" fill="#fff"/><use xlink:href="#S" transform="matrix(1,0,0,1,1152,430) translate(10.75 14.4)"/><use xlink:href="#T" transform="matrix(1,0,0,1,1152,430) translate(143.5 14.4)"/><use xlink:href="#U" transform="matrix(1,0,0,1,1152,430) translate(92.05 36)"/><path d="M1140 668.4h260v64.8h-260z" stroke="#000" stroke-width="2" fill="#fff"/><use xlink:href="#V" transform="matrix(1,0,0,1,1152,680.4) translate(47.650000000000006 14.4)"/><use xlink:href="#W" transform="matrix(1,0,0,1,1152,680.4) translate(119.4 14.4)"/><use xlink:href="#X" transform="matrix(1,0,0,1,1152,680.4) translate(59.12499999999999 36)"/><use xlink:href="#Y" transform="matrix(1,0,0,1,1152,680.4) translate(126.025 36)"/><path d="M1140 518h260v110.4h-260z" stroke="#000" stroke-width="2" fill="#fff"/><use xlink:href="#Z" transform="matrix(1,0,0,1,1152,530) translate(32.25 14.4)"/><use xlink:href="#aa" transform="matrix(1,0,0,1,1152,530) translate(70.2 14.4)"/><use xlink:href="#ab" transform="matrix(1,0,0,1,1152,530) translate(112.1 14.4)"/><use xlink:href="#ac" transform="matrix(1,0,0,1,1152,530) translate(79.6 36)"/><use xlink:href="#ad" transform="matrix(1,0,0,1,1152,530) translate(115.44999999999999 36)"/><use xlink:href="#ae" transform="matrix(1,0,0,1,1152,530) translate(10.625 57.6)"/><use xlink:href="#af" transform="matrix(1,0,0,1,1152,530) translate(78.47500000000001 57.6)"/><use xlink:href="#ag" transform="matrix(1,0,0,1,1152,530) translate(143.375 57.6)"/><use xlink:href="#ah" transform="matrix(1,0,0,1,1152,530) translate(206.375 57.6)"/><use xlink:href="#ai" transform="matrix(1,0,0,1,1152,530) translate(97.55 79.20000000000002)"/><path d="M942 687.37h98V328h80.5" stroke="#000" stroke-width="2" fill="none"/><path d="M942.03 688.37H941v-2h1.03z" stroke="#000" stroke-width=".05"/><path d="M1135.76 328l-14.26 4.63v-9.26z" stroke="#000" stroke-width="2"/><path d="M1270 380v18.5" stroke="#000" stroke-width="2" fill="none"/><path d="M1271 380.03h-2V379h2z" stroke="#000" stroke-width=".05"/><path d="M1270 413.76l-4.63-14.26h9.27z" stroke="#000" stroke-width="2"/><path d="M1270 480v18.5" stroke="#000" stroke-width="2" fill="none"/><path d="M1271 480.03h-2V479h2z" stroke="#000" stroke-width=".05"/><path d="M1270 513.76l-4.63-14.26h9.27z" stroke="#000" stroke-width="2"/><path d="M1270 630.4v18.5" stroke="#000" stroke-width="2" fill="none"/><path d="M1271 630.43h-2v-1.03h2z" stroke="#000" stroke-width=".05"/><path d="M1270 664.16l-4.63-14.26h9.27z" stroke="#000" stroke-width="2"/><path d="M752 838h128l-32 120H720z" stroke="#000" stroke-width="2" fill="#fff"/><use xlink:href="#aj" transform="matrix(1,0,0,1,725,843) translate(47.605000000000004 48.775)"/><use xlink:href="#ak" transform="matrix(1,0,0,1,725,843) translate(37.05499999999999 70.375)"/><path d="M772 858h128l-32 120H740z" stroke="#000" stroke-width="2" fill="#fff"/><use xlink:href="#aj" transform="matrix(1,0,0,1,745,863) translate(47.605000000000004 48.775)"/><use xlink:href="#ak" transform="matrix(1,0,0,1,745,863) translate(37.05499999999999 70.375)"/><path d="M792 878h128l-32 120H760z" stroke="#000" stroke-width="2" fill="#fff"/><use xlink:href="#aj" transform="matrix(1,0,0,1,765,883) translate(47.605000000000004 48.775)"/><use xlink:href="#ak" transform="matrix(1,0,0,1,765,883) translate(37.05499999999999 70.375)"/><path d="M812 898h128l-32 120H780z" stroke="#000" stroke-width="2" fill="#fff"/><use xlink:href="#aj" transform="matrix(1,0,0,1,785,903.0000000000001) translate(47.605000000000004 48.775)"/><use xlink:href="#ak" transform="matrix(1,0,0,1,785,903.0000000000001) translate(37.05499999999999 70.375)"/><path d="M832 918h128l-32 120H800z" stroke="#000" stroke-width="2" fill="#fff"/><use xlink:href="#al" transform="matrix(1,0,0,1,805,923.0000000000001) translate(27.57999999999999 59.0875)"/><use xlink:href="#am" transform="matrix(1,0,0,1,805,923.0000000000001) translate(59.529999999999994 59.0875)"/><path d="M1270 735.2v21h-180V820H840v38.5" stroke="#000" stroke-width="2" fill="none"/><path d="M1271 735.23h-2v-1.03h2z" stroke="#000" stroke-width=".05"/><path d="M840 873.76l-4.63-14.26h9.26z" stroke="#000" stroke-width="2"/><path d="M1232 838h128l-32 120h-128z" stroke="#000" stroke-width="2" fill="#fff"/><use xlink:href="#aj" transform="matrix(1,0,0,1,1205,843) translate(47.605000000000004 48.775)"/><use xlink:href="#ak" transform="matrix(1,0,0,1,1205,843) translate(37.05499999999999 70.375)"/><path d="M1252 858h128l-32 120h-128z" stroke="#000" stroke-width="2" fill="#fff"/><use xlink:href="#aj" transform="matrix(1,0,0,1,1225,863) translate(47.605000000000004 48.775)"/><use xlink:href="#ak" transform="matrix(1,0,0,1,1225,863) translate(37.05499999999999 70.375)"/><path d="M1272 878h128l-32 120h-128z" stroke="#000" stroke-width="2" fill="#fff"/><use xlink:href="#aj" transform="matrix(1,0,0,1,1245,883) translate(47.605000000000004 48.775)"/><use xlink:href="#ak" transform="matrix(1,0,0,1,1245,883) translate(37.05499999999999 70.375)"/><path d="M1292 898h128l-32 120h-128z" stroke="#000" stroke-width="2" fill="#fff"/><use xlink:href="#aj" transform="matrix(1,0,0,1,1265,903.0000000000001) translate(47.605000000000004 48.775)"/><use xlink:href="#ak" transform="matrix(1,0,0,1,1265,903.0000000000001) translate(37.05499999999999 70.375)"/><path d="M1312 918h128l-32 120h-128z" stroke="#000" stroke-width="2" fill="#fff"/><use xlink:href="#an" transform="matrix(1,0,0,1,1285,923.0000000000001) translate(45.10499999999999 48.775)"/><use xlink:href="#ak" transform="matrix(1,0,0,1,1285,923.0000000000001) translate(37.05499999999999 70.375)"/><path d="M1270 735.2v21h-180V820h238.62v38.5" stroke="#000" stroke-width="2" fill="none"/><path d="M1271 735.23h-2v-1.03h2z" stroke="#000" stroke-width=".05"/><path d="M1328.62 873.76l-4.64-14.26h9.27z" stroke="#000" stroke-width="2"/><path d="M1642-30h128l-32 120h-128z" stroke="#000" stroke-width="2" fill="#fff"/><use xlink:href="#ao" transform="matrix(1,0,0,1,1615,-25.000000000000455) translate(47.605000000000004 48.775)"/><use xlink:href="#ap" transform="matrix(1,0,0,1,1615,-25.000000000000455) translate(37.05499999999999 70.375)"/><path d="M1662-10h128l-32 120h-128z" stroke="#000" stroke-width="2" fill="#fff"/><use xlink:href="#ao" transform="matrix(1,0,0,1,1635,-5.000000000000455) translate(47.605000000000004 48.775)"/><use xlink:href="#ap" transform="matrix(1,0,0,1,1635,-5.000000000000455) translate(37.05499999999999 70.375)"/><path d="M1682 10h128l-32 120h-128z" stroke="#000" stroke-width="2" fill="#fff"/><g><use xlink:href="#ao" transform="matrix(1,0,0,1,1655,14.999999999999545) translate(47.605000000000004 48.775)"/><use xlink:href="#ap" transform="matrix(1,0,0,1,1655,14.999999999999545) translate(37.05499999999999 70.375)"/></g><path d="M1702 30h128l-32 120h-128z" stroke="#000" stroke-width="2" fill="#fff"/><g><use xlink:href="#ao" transform="matrix(1,0,0,1,1675,34.99999999999966) translate(47.605000000000004 48.775)"/><use xlink:href="#ap" transform="matrix(1,0,0,1,1675,34.99999999999966) translate(37.05499999999999 70.375)"/></g><path d="M1722 50h128l-32 120h-128z" stroke="#000" stroke-width="2" fill="#fff"/><g><use xlink:href="#ao" transform="matrix(1,0,0,1,1695,54.99999999999966) translate(47.605000000000004 48.775)"/><use xlink:href="#ap" transform="matrix(1,0,0,1,1695,54.99999999999966) translate(37.05499999999999 70.375)"/></g><path d="M1550 220h820v598h-820z" stroke="#000" stroke-width="2" fill="#fff"/><g><use xlink:href="#aq" transform="matrix(1,0,0,1,1555,224.99999999999966) translate(285.25925925925924 21.333333333333336)"/><use xlink:href="#ar" transform="matrix(1,0,0,1,1555,224.99999999999966) translate(387.4074074074074 21.333333333333336)"/></g><path d="M1572 458.8h318v153.6h-318z" stroke="#000" stroke-width="2" fill="#fff"/><g><use xlink:href="#as" transform="matrix(1,0,0,1,1584,470.79999999999956) translate(66.675 14.4)"/><use xlink:href="#at" transform="matrix(1,0,0,1,1584,470.79999999999956) translate(135.625 14.4)"/><use xlink:href="#au" transform="matrix(1,0,0,1,1584,470.79999999999956) translate(32.17499999999998 36)"/><use xlink:href="#av" transform="matrix(1,0,0,1,1584,470.79999999999956) translate(98.07499999999999 36)"/><use xlink:href="#aw" transform="matrix(1,0,0,1,1584,470.79999999999956) translate(129.02499999999998 36)"/><use xlink:href="#ax" transform="matrix(1,0,0,1,1584,470.79999999999956) translate(178.025 36)"/><use xlink:href="#ay" transform="matrix(1,0,0,1,1584,470.79999999999956) translate(49.69999999999999 57.6)"/><use xlink:href="#az" transform="matrix(1,0,0,1,1584,470.79999999999956) translate(91.6 57.6)"/><use xlink:href="#aA" transform="matrix(1,0,0,1,1584,470.79999999999956) translate(155.5 57.6)"/><use xlink:href="#aB" transform="matrix(1,0,0,1,1584,470.79999999999956) translate(22.25 79.20000000000002)"/><use xlink:href="#aC" transform="matrix(1,0,0,1,1584,470.79999999999956) translate(112.05000000000001 79.20000000000002)"/><use xlink:href="#az" transform="matrix(1,0,0,1,1584,470.79999999999956) translate(153 79.20000000000002)"/><use xlink:href="#aD" transform="matrix(1,0,0,1,1584,470.79999999999956) translate(216.9 79.20000000000002)"/><use xlink:href="#aE" transform="matrix(1,0,0,1,1584,470.79999999999956) translate(79.65 100.80000000000001)"/><use xlink:href="#aF" transform="matrix(1,0,0,1,1584,470.79999999999956) translate(157.5 100.80000000000001)"/><use xlink:href="#aE" transform="matrix(1,0,0,1,1584,470.79999999999956) translate(73.67500000000001 122.4)"/><use xlink:href="#aG" transform="matrix(1,0,0,1,1584,470.79999999999956) translate(151.525 122.4)"/></g><path d="M1731 614.4l.4 59.3" stroke="#000" stroke-width="2" fill="none"/><path d="M1732 614.42h-2v-1.02h2z" stroke="#000" stroke-width=".05"/><path d="M1731.48 688.96l-4.72-14.23 9.27-.06z" stroke="#000" stroke-width="2"/><path d="M1569 693.2h321v96.4h-321z" stroke="#000" stroke-width="2" fill="#fff"/><g><use xlink:href="#S" transform="matrix(1,0,0,1,1581.0000000000005,705.1999999999996) translate(38.27499999999999 14.4)"/><use xlink:href="#aH" transform="matrix(1,0,0,1,1581.0000000000005,705.1999999999996) translate(171.02499999999998 14.4)"/><use xlink:href="#aI" transform="matrix(1,0,0,1,1581.0000000000005,705.1999999999996) translate(61.64999999999999 36)"/><use xlink:href="#aJ" transform="matrix(1,0,0,1,1581.0000000000005,705.1999999999996) translate(102.6 36)"/><use xlink:href="#aK" transform="matrix(1,0,0,1,1581.0000000000005,705.1999999999996) translate(170.45 36)"/><use xlink:href="#aL" transform="matrix(1,0,0,1,1581.0000000000005,705.1999999999996) translate(195.45 36)"/><use xlink:href="#aM" transform="matrix(1,0,0,1,1581.0000000000005,705.1999999999996) translate(122.55 57.6)"/></g><path d="M2030 284h320v96.4h-320z" stroke="#000" stroke-width="2" fill="#fff"/><g><use xlink:href="#aN" transform="matrix(1,0,0,1,2042,295.99999999999955) translate(103.625 14.4)"/><use xlink:href="#L" transform="matrix(1,0,0,1,2042,295.99999999999955) translate(38.64999999999999 36)"/><use xlink:href="#w" transform="matrix(1,0,0,1,2042,295.99999999999955) translate(80.6 36)"/><use xlink:href="#M" transform="matrix(1,0,0,1,2042,295.99999999999955) translate(115.6 36)"/><use xlink:href="#N" transform="matrix(1,0,0,1,2042,295.99999999999955) translate(174.55 36)"/><use xlink:href="#aO" transform="matrix(1,0,0,1,2042,295.99999999999955) translate(26.174999999999983 57.6)"/><use xlink:href="#aP" transform="matrix(1,0,0,1,2042,295.99999999999955) translate(78.12499999999999 57.6)"/><use xlink:href="#aQ" transform="matrix(1,0,0,1,2042,295.99999999999955) translate(182.975 57.6)"/></g><path d="M2190 382.4l.9 138.1" stroke="#000" stroke-width="2" fill="none"/><path d="M2191 382.42h-2v-1.02h2z" stroke="#000" stroke-width=".05"/><path d="M2191 535.76l-4.74-14.23 9.27-.06z" stroke="#000" stroke-width="2"/><path d="M1572 284h318v94h-318z" stroke="#000" stroke-width="2" fill="#fff"/><g><use xlink:href="#as" transform="matrix(1,0,0,1,1583.9999999999995,295.99999999999955) translate(74.1 14.4)"/><use xlink:href="#aR" transform="matrix(1,0,0,1,1583.9999999999995,295.99999999999955) translate(143.05 14.4)"/><use xlink:href="#aS" transform="matrix(1,0,0,1,1583.9999999999995,295.99999999999955) translate(20.07499999999999 36)"/><use xlink:href="#u" transform="matrix(1,0,0,1,1583.9999999999995,295.99999999999955) translate(113.02499999999999 36)"/><use xlink:href="#aT" transform="matrix(1,0,0,1,1583.9999999999995,295.99999999999955) translate(138.02499999999998 36)"/><use xlink:href="#aU" transform="matrix(1,0,0,1,1583.9999999999995,295.99999999999955) translate(215.975 36)"/></g><path d="M1728 172v55h.07v37.5" stroke="#000" stroke-width="2" fill="none"/><path d="M1729 172.03h-2V171h2z" stroke="#000" stroke-width=".05"/><path d="M1728.07 279.76l-4.64-14.26h9.27z" stroke="#000" stroke-width="2"/><path d="M1731 380v59.3" stroke="#000" stroke-width="2" fill="none"/><path d="M1732 380.03h-2V379h2z" stroke="#000" stroke-width=".05"/><path d="M1731 454.56l-4.63-14.26h9.27z" stroke="#000" stroke-width="2"/><path d="M1892 741.4h68V332.2h50.5" stroke="#000" stroke-width="2" fill="none"/><path d="M1892.03 742.4H1891v-2h1.03z" stroke="#000" stroke-width=".05"/><path d="M2025.76 332.2l-14.26 4.63v-9.26z" stroke="#000" stroke-width="2"/><path d="M2030 540h320v120h-320z" stroke="#000" stroke-width="2" fill="#fff"/><g><use xlink:href="#Z" transform="matrix(1,0,0,1,2042,551.9999999999997) translate(62.75 14.4)"/><use xlink:href="#aa" transform="matrix(1,0,0,1,2042,551.9999999999997) translate(100.7 14.4)"/><use xlink:href="#ab" transform="matrix(1,0,0,1,2042,551.9999999999997) translate(142.6 14.4)"/><use xlink:href="#aV" transform="matrix(1,0,0,1,2042,551.9999999999997) translate(48.125 36)"/><use xlink:href="#aW" transform="matrix(1,0,0,1,2042,551.9999999999997) translate(164.925 36)"/><use xlink:href="#aX" transform="matrix(1,0,0,1,2042,551.9999999999997) translate(12.674999999999983 57.6)"/><use xlink:href="#aY" transform="matrix(1,0,0,1,2042,551.9999999999997) translate(41.67499999999998 57.6)"/><use xlink:href="#aZ" transform="matrix(1,0,0,1,2042,551.9999999999997) translate(61.67499999999998 57.6)"/><use xlink:href="#ba" transform="matrix(1,0,0,1,2042,551.9999999999997) translate(124.62499999999999 57.6)"/><use xlink:href="#bb" transform="matrix(1,0,0,1,2042,551.9999999999997) translate(206.475 57.6)"/></g><path d="M2190 662v78h-170v100h-310v18.5" stroke="#000" stroke-width="2" fill="none"/><path d="M2191 662.03h-2V661h2z" stroke="#000" stroke-width=".05"/><path d="M1710 873.76l-4.63-14.26h9.27z" stroke="#000" stroke-width="2"/><path d="M1662 878h128l-32 120h-128z" stroke="#000" stroke-width="2" fill="#fff"/><g><use xlink:href="#ao" transform="matrix(1,0,0,1,1635,883) translate(47.605000000000004 48.775)"/><use xlink:href="#ap" transform="matrix(1,0,0,1,1635,883) translate(37.05499999999999 70.375)"/></g><path d="M1682 898h128l-32 120h-128z" stroke="#000" stroke-width="2" fill="#fff"/><g><use xlink:href="#ao" transform="matrix(1,0,0,1,1655,903) translate(47.605000000000004 48.775)"/><use xlink:href="#ap" transform="matrix(1,0,0,1,1655,903) translate(37.05499999999999 70.375)"/></g><path d="M1702 918h128l-32 120h-128z" stroke="#000" stroke-width="2" fill="#fff"/><g><use xlink:href="#ao" transform="matrix(1,0,0,1,1675,923) translate(47.605000000000004 48.775)"/><use xlink:href="#ap" transform="matrix(1,0,0,1,1675,923) translate(37.05499999999999 70.375)"/></g><path d="M1722 938h128l-32 120h-128z" stroke="#000" stroke-width="2" fill="#fff"/><g><use xlink:href="#ao" transform="matrix(1,0,0,1,1695,943.0000000000003) translate(47.605000000000004 48.775)"/><use xlink:href="#ap" transform="matrix(1,0,0,1,1695,943.0000000000003) translate(37.05499999999999 70.375)"/></g><path d="M1742 958h128l-32 120h-128z" stroke="#000" stroke-width="2" fill="#fff"/><g><use xlink:href="#bc" transform="matrix(1,0,0,1,1715,963.0000000000003) translate(38.129999999999995 24.7125)"/><use xlink:href="#bd" transform="matrix(1,0,0,1,1715,963.0000000000003) translate(81.03 24.7125)"/><use xlink:href="#be" transform="matrix(1,0,0,1,1715,963.0000000000003) translate(108.93 24.7125)"/><use xlink:href="#bf" transform="matrix(1,0,0,1,1715,963.0000000000003) translate(34.504999999999995 46.3125)"/><use xlink:href="#bg" transform="matrix(1,0,0,1,1715,963.0000000000003) translate(78.505 46.3125)"/><use xlink:href="#bh" transform="matrix(1,0,0,1,1715,963.0000000000003) translate(33.58 67.91250000000001)"/><use xlink:href="#bi" transform="matrix(1,0,0,1,1715,963.0000000000003) translate(37.029999999999994 89.51250000000002)"/></g><path d="M2142 878h128l-32 120h-128z" stroke="#000" stroke-width="2" fill="#fff"/><g><use xlink:href="#ao" transform="matrix(1,0,0,1,2115,882.9999999999999) translate(47.605000000000004 48.775)"/><use xlink:href="#ap" transform="matrix(1,0,0,1,2115,882.9999999999999) translate(37.05499999999999 70.375)"/></g><path d="M2162 898h128l-32 120h-128z" stroke="#000" stroke-width="2" fill="#fff"/><g><use xlink:href="#ao" transform="matrix(1,0,0,1,2135,902.9999999999999) translate(47.605000000000004 48.775)"/><use xlink:href="#ap" transform="matrix(1,0,0,1,2135,902.9999999999999) translate(37.05499999999999 70.375)"/></g><path d="M2182 918h128l-32 120h-128z" stroke="#000" stroke-width="2" fill="#fff"/><g><use xlink:href="#ao" transform="matrix(1,0,0,1,2155,922.9999999999999) translate(47.605000000000004 48.775)"/><use xlink:href="#ap" transform="matrix(1,0,0,1,2155,922.9999999999999) translate(37.05499999999999 70.375)"/></g><path d="M2202 938h128l-32 120h-128z" stroke="#000" stroke-width="2" fill="#fff"/><g><use xlink:href="#ao" transform="matrix(1,0,0,1,2175,943.0000000000003) translate(47.605000000000004 48.775)"/><use xlink:href="#ap" transform="matrix(1,0,0,1,2175,943.0000000000003) translate(37.05499999999999 70.375)"/></g><path d="M2222 958h128l-32 120h-128z" stroke="#000" stroke-width="2" fill="#fff"/><g><use xlink:href="#bj" transform="matrix(1,0,0,1,2195,963.0000000000003) translate(38.05499999999999 38.4625)"/><use xlink:href="#bk" transform="matrix(1,0,0,1,2195,963.0000000000003) translate(16.57999999999999 60.0625)"/><use xlink:href="#bl" transform="matrix(1,0,0,1,2195,963.0000000000003) translate(68.48 60.0625)"/><use xlink:href="#bm" transform="matrix(1,0,0,1,2195,963.0000000000003) translate(94.43 60.0625)"/><use xlink:href="#bn" transform="matrix(1,0,0,1,2195,963.0000000000003) translate(37.029999999999994 81.66250000000001)"/></g><path d="M2190 662v78h-170v100h170v18.5" stroke="#000" stroke-width="2" fill="none"/><path d="M2191 662.03h-2V661h2z" stroke="#000" stroke-width=".05"/><path d="M2190 873.76l-4.64-14.26h9.28z" stroke="#000" stroke-width="2"/><path d="M1426.04 978H1525V30h81.46" stroke="#000" stroke-width="2" fill="none"/><path d="M1426.06 979h-1.3l.54-2h.76z" stroke="#000" stroke-width=".05"/><path d="M1621.73 30l-14.27 4.63v-9.27z" stroke="#000" stroke-width="2"/><path d="M466.04 680H630V100h96.46" stroke="#000" stroke-width="2" fill="none"/><path d="M466.06 681h-1.3l.54-2h.76z" stroke="#000" stroke-width=".05"/><path d="M741.73 100l-14.27 4.64v-9.28z" stroke="#000" stroke-width="2"/><defs><path d="M185-189c-5-48-123-54-124 2 14 75 158 14 163 119 3 78-121 87-175 55-17-10-28-26-33-46l33-7c5 56 141 63 141-1 0-78-155-14-162-118-5-82 145-84 179-34 5 7 8 16 11 25" id="bo"/><path d="M141-36C126-15 110 5 73 4 37 3 15-17 15-53c-1-64 63-63 125-63 3-35-9-54-41-54-24 1-41 7-42 31l-33-3c5-37 33-52 76-52 45 0 72 20 72 64v82c-1 20 7 32 28 27v20c-31 9-61-2-59-35zM48-53c0 20 12 33 32 33 41-3 63-29 60-74-43 2-92-5-92 41" id="bp"/><path d="M210-169c-67 3-38 105-44 169h-31v-121c0-29-5-50-35-48C34-165 62-65 56 0H25l-1-190h30c1 10-1 24 2 32 10-44 99-50 107 0 11-21 27-35 58-36 85-2 47 119 55 194h-31v-121c0-29-5-49-35-48" id="bq"/><path d="M115-194c55 1 70 41 70 98S169 2 115 4C84 4 66-9 55-30l1 105H24l-1-265h31l2 30c10-21 28-34 59-34zm-8 174c40 0 45-34 45-75s-6-73-45-74c-42 0-51 32-51 76 0 43 10 73 51 73" id="br"/><path d="M24 0v-261h32V0H24" id="bs"/><path d="M100-194c63 0 86 42 84 106H49c0 40 14 67 53 68 26 1 43-12 49-29l28 8c-11 28-37 45-77 45C44 4 14-33 15-96c1-61 26-98 85-98zm52 81c6-60-76-77-97-28-3 7-6 17-6 28h103" id="bt"/><g id="a"><use transform="matrix(0.05,0,0,0.05,0,0)" xlink:href="#bo"/><use transform="matrix(0.05,0,0,0.05,12,0)" xlink:href="#bp"/><use transform="matrix(0.05,0,0,0.05,22,0)" xlink:href="#bq"/><use transform="matrix(0.05,0,0,0.05,36.95,0)" xlink:href="#br"/><use transform="matrix(0.05,0,0,0.05,46.95,0)" xlink:href="#bs"/><use transform="matrix(0.05,0,0,0.05,50.900000000000006,0)" xlink:href="#bt"/></g><path d="M63-220v92h138v28H63V0H30v-248h175v28H63" id="bu"/><path d="M205 0l-28-72H64L36 0H1l101-248h38L239 0h-34zm-38-99l-47-123c-12 45-31 82-46 123h93" id="bv"/><path d="M127-220V0H93v-220H8v-28h204v28h-85" id="bw"/><path d="M140-251c81 0 123 46 123 126C263-53 228-8 163 1c7 30 30 48 69 40v23c-55 16-95-15-103-61C56-3 17-48 17-125c0-80 42-126 123-126zm0 227c63 0 89-41 89-101s-29-99-89-99c-61 0-89 39-89 99S79-25 140-24" id="bx"/><g id="b"><use transform="matrix(0.05,0,0,0.05,0,0)" xlink:href="#bu"/><use transform="matrix(0.05,0,0,0.05,9.950000000000001,0)" xlink:href="#bv"/><use transform="matrix(0.05,0,0,0.05,21.950000000000003,0)" xlink:href="#bo"/><use transform="matrix(0.05,0,0,0.05,33.95,0)" xlink:href="#bw"/><use transform="matrix(0.05,0,0,0.05,44.900000000000006,0)" xlink:href="#bx"/></g><path d="M101-234c-31-9-42 10-38 44h38v23H63V0H32v-167H5v-23h27c-7-52 17-82 69-68v24" id="by"/><path d="M24-231v-30h32v30H24zM24 0v-190h32V0H24" id="bz"/><path d="M135-143c-3-34-86-38-87 0 15 53 115 12 119 90S17 21 10-45l28-5c4 36 97 45 98 0-10-56-113-15-118-90-4-57 82-63 122-42 12 7 21 19 24 35" id="bA"/><g id="c"><use transform="matrix(0.05,0,0,0.05,0,0)" xlink:href="#by"/><use transform="matrix(0.05,0,0,0.05,5,0)" xlink:href="#bz"/><use transform="matrix(0.05,0,0,0.05,8.95,0)" xlink:href="#bs"/><use transform="matrix(0.05,0,0,0.05,12.899999999999999,0)" xlink:href="#bt"/><use transform="matrix(0.05,0,0,0.05,22.9,0)" xlink:href="#bA"/></g><path d="M67-125c0 53 21 87 73 88 37 1 54-22 65-47l45 17C233-25 199 4 140 4 58 4 20-42 15-125 8-235 124-281 211-232c18 10 29 29 36 50l-46 12c-8-25-30-41-62-41-52 0-71 34-72 86" id="bB"/><path d="M185-48c-13 30-37 53-82 52C43 2 14-33 14-96s30-98 90-98c62 0 83 45 84 108H66c0 31 8 55 39 56 18 0 30-7 34-22zm-45-69c5-46-57-63-70-21-2 6-4 13-4 21h74" id="bC"/><path d="M25 0v-261h50V0H25" id="bD"/><path d="M240-174c0 40-23 61-54 70L253 0h-59l-57-94H76V0H24v-248c93 4 217-23 216 74zM76-134c48-2 112 12 112-38 0-48-66-32-112-35v73" id="bE"/><path d="M133-34C117-15 103 5 69 4 32 3 11-16 11-54c-1-60 55-63 116-61 1-26-3-47-28-47-18 1-26 9-28 27l-52-2c7-38 36-58 82-57s74 22 75 68l1 82c-1 14 12 18 25 15v27c-30 8-71 5-69-32zm-48 3c29 0 43-24 42-57-32 0-66-3-65 30 0 17 8 27 23 27" id="bF"/><path d="M135-194c87-1 58 113 63 194h-50c-7-57 23-157-34-157-59 0-34 97-39 157H25l-1-190h47c2 12-1 28 3 38 12-26 28-41 61-42" id="bG"/><path d="M195-6C206 82 75 100 31 46c-4-6-6-13-8-21l49-6c3 16 16 24 34 25 40 0 42-37 40-79-11 22-30 35-61 35-53 0-70-43-70-97 0-56 18-96 73-97 30 0 46 14 59 34l2-30h47zm-90-29c32 0 41-27 41-63 0-35-9-62-40-62-32 0-39 29-40 63 0 36 9 62 39 62" id="bH"/><path d="M135-150c-39-12-60 13-60 57V0H25l-1-190h47c2 13-1 29 3 40 6-28 27-53 61-41v41" id="bI"/><g id="d"><use transform="matrix(0.0685185185185185,0,0,0.0685185185185185,0,0)" xlink:href="#bB"/><use transform="matrix(0.0685185185185185,0,0,0.0685185185185185,17.746296296296293,0)" xlink:href="#bC"/><use transform="matrix(0.0685185185185185,0,0,0.0685185185185185,31.449999999999996,0)" xlink:href="#bD"/><use transform="matrix(0.0685185185185185,0,0,0.0685185185185185,38.30185185185184,0)" xlink:href="#bD"/><use transform="matrix(0.0685185185185185,0,0,0.0685185185185185,45.15370370370369,0)" xlink:href="#bE"/><use transform="matrix(0.0685185185185185,0,0,0.0685185185185185,62.899999999999984,0)" xlink:href="#bF"/><use transform="matrix(0.0685185185185185,0,0,0.0685185185185185,76.60370370370369,0)" xlink:href="#bG"/><use transform="matrix(0.0685185185185185,0,0,0.0685185185185185,91.60925925925923,0)" xlink:href="#bH"/><use transform="matrix(0.0685185185185185,0,0,0.0685185185185185,106.61481481481479,0)" xlink:href="#bC"/><use transform="matrix(0.0685185185185185,0,0,0.0685185185185185,120.31851851851849,0)" xlink:href="#bI"/><path d="M-1.23 1.32H138v2.6H-1.23z"/></g><path d="M25-224v-37h50v37H25zM25 0v-190h50V0H25" id="bJ"/><path d="M220-157c-53 9-28 100-34 157h-49v-107c1-27-5-49-29-50C55-147 81-57 75 0H25l-1-190h47c2 12-1 28 3 38 10-53 101-56 108 0 13-22 24-43 59-42 82 1 51 116 57 194h-49v-107c-1-25-5-48-29-50" id="bK"/><path d="M115-3C79 11 28 4 28-45v-112H4v-33h27l15-45h31v45h36v33H77v99c-1 23 16 31 38 25v30" id="bL"/><g id="e"><use transform="matrix(0.0685185185185185,0,0,0.0685185185185185,0,0)" xlink:href="#bF"/><use transform="matrix(0.0685185185185185,0,0,0.0685185185185185,13.7037037037037,0)" xlink:href="#bD"/><use transform="matrix(0.0685185185185185,0,0,0.0685185185185185,20.555555555555554,0)" xlink:href="#bJ"/><use transform="matrix(0.0685185185185185,0,0,0.0685185185185185,27.4074074074074,0)" xlink:href="#bH"/><use transform="matrix(0.0685185185185185,0,0,0.0685185185185185,42.41296296296295,0)" xlink:href="#bG"/><use transform="matrix(0.0685185185185185,0,0,0.0685185185185185,57.4185185185185,0)" xlink:href="#bK"/><use transform="matrix(0.0685185185185185,0,0,0.0685185185185185,79.34444444444443,0)" xlink:href="#bC"/><use transform="matrix(0.0685185185185185,0,0,0.0685185185185185,93.04814814814813,0)" xlink:href="#bG"/><use transform="matrix(0.0685185185185185,0,0,0.0685185185185185,108.05370370370369,0)" xlink:href="#bL"/><path d="M-1.23 1.32h118.67v2.6H-1.23z"/><path d="M115.3.97h1.8v1.9h-1.8z"/></g><path d="M143 4C61 4 22-44 18-125c-5-107 100-154 193-111 17 8 29 25 37 43l-32 9c-13-25-37-40-76-40-61 0-88 39-88 99 0 61 29 100 91 101 35 0 62-11 79-27v-45h-74v-28h105v86C228-13 192 4 143 4" id="bM"/><path d="M30 0v-248h187v28H63v79h144v27H63v87h162V0H30" id="bN"/><path d="M195 0l-74-108L45 0H8l94-129-87-119h37l69 98 67-98h37l-84 118L233 0h-38" id="bO"/><g id="f"><use transform="matrix(0.05,0,0,0.05,0,0)" xlink:href="#bM"/><use transform="matrix(0.05,0,0,0.05,14,0)" xlink:href="#bN"/><use transform="matrix(0.05,0,0,0.05,26,0)" xlink:href="#bO"/></g><path d="M212-179c-10-28-35-45-73-45-59 0-87 40-87 99 0 60 29 101 89 101 43 0 62-24 78-52l27 14C228-24 195 4 139 4 59 4 22-46 18-125c-6-104 99-153 187-111 19 9 31 26 39 46" id="bP"/><path d="M33 0v-248h34V0H33" id="bQ"/><path d="M145-31C134-9 116 4 85 4 32 4 16-35 15-94c0-59 17-99 70-100 32-1 48 14 60 33 0-11-1-24 2-32h30l-1 268h-32zM93-21c41 0 51-33 51-76s-8-73-50-73c-40 0-46 35-46 75s5 74 45 74" id="bR"/><g id="g"><use transform="matrix(0.05,0,0,0.05,0,0)" xlink:href="#bP"/><use transform="matrix(0.05,0,0,0.05,12.950000000000001,0)" xlink:href="#bQ"/><use transform="matrix(0.05,0,0,0.05,17.950000000000003,0)" xlink:href="#bw"/><use transform="matrix(0.05,0,0,0.05,28.900000000000006,0)" xlink:href="#bN"/><use transform="matrix(0.05,0,0,0.05,40.900000000000006,0)" xlink:href="#bo"/><use transform="matrix(0.05,0,0,0.05,52.900000000000006,0)" xlink:href="#bt"/><use transform="matrix(0.05,0,0,0.05,62.900000000000006,0)" xlink:href="#bR"/></g><g id="h"><use transform="matrix(0.05,0,0,0.05,0,0)" xlink:href="#bP"/><use transform="matrix(0.05,0,0,0.05,12.950000000000001,0)" xlink:href="#bt"/><use transform="matrix(0.05,0,0,0.05,22.950000000000003,0)" xlink:href="#bs"/><use transform="matrix(0.05,0,0,0.05,26.900000000000002,0)" xlink:href="#bs"/></g><path d="M106-169C34-169 62-67 57 0H25v-261h32l-1 103c12-21 28-36 61-36 89 0 53 116 60 194h-32v-121c2-32-8-49-39-48" id="bS"/><path d="M117-194c89-4 53 116 60 194h-32v-121c0-31-8-49-39-48C34-167 62-67 57 0H25l-1-190h30c1 10-1 24 2 32 11-22 29-35 61-36" id="bT"/><path d="M177-190C167-65 218 103 67 71c-23-6-38-20-44-43l32-5c15 47 100 32 89-28v-30C133-14 115 1 83 1 29 1 15-40 15-95c0-56 16-97 71-98 29-1 48 16 59 35 1-10 0-23 2-32h30zM94-22c36 0 50-32 50-73 0-42-14-75-50-75-39 0-46 34-46 75s6 73 46 73" id="bU"/><g id="i"><use transform="matrix(0.05,0,0,0.05,0,0)" xlink:href="#bS"/><use transform="matrix(0.05,0,0,0.05,10,0)" xlink:href="#bp"/><use transform="matrix(0.05,0,0,0.05,20,0)" xlink:href="#bA"/><use transform="matrix(0.05,0,0,0.05,29,0)" xlink:href="#bS"/><use transform="matrix(0.05,0,0,0.05,39,0)" xlink:href="#bz"/><use transform="matrix(0.05,0,0,0.05,42.95,0)" xlink:href="#bT"/><use transform="matrix(0.05,0,0,0.05,52.95,0)" xlink:href="#bU"/></g><path d="M137 0h-34L2-248h35l83 218 83-218h36" id="bV"/><path d="M87 75C49 33 22-17 22-94c0-76 28-126 65-167h31c-38 41-64 92-64 168S80 34 118 75H87" id="bW"/><path d="M30-248c118-7 216 8 213 122C240-48 200 0 122 0H30v-248zM63-27c89 8 146-16 146-99s-60-101-146-95v194" id="bX"/><path d="M33-261c38 41 65 92 65 168S71 34 33 75H2C39 34 66-17 66-93S39-220 2-261h31" id="bY"/><path d="M153-248C145-148 188 4 80 4 36 3 13-21 6-62l32-5c4 25 16 42 43 43 27 0 39-20 39-49v-147H72v-28h81" id="bZ"/><g id="j"><use transform="matrix(0.05,0,0,0.05,0,0)" xlink:href="#bV"/><use transform="matrix(0.05,0,0,0.05,12,0)" xlink:href="#bW"/><use transform="matrix(0.05,0,0,0.05,17.95,0)" xlink:href="#bX"/><use transform="matrix(0.05,0,0,0.05,30.899999999999995,0)" xlink:href="#bY"/><use transform="matrix(0.05,0,0,0.05,36.85,0)" xlink:href="#bZ"/></g><path d="M54-142c48-35 137-8 131 61C196 18 31 33 14-55l32-4c7 23 22 37 52 37 35-1 51-22 54-58 4-55-73-65-99-34H22l8-134h141v27H59" id="ca"/><g id="k"><use transform="matrix(0.05,0,0,0.05,0,0)" xlink:href="#bS"/><use transform="matrix(0.05,0,0,0.05,10,0)" xlink:href="#ca"/></g><path d="M85-194c31 0 48 13 60 33l-1-100h32l1 261h-30c-2-10 0-23-3-31C134-8 116 4 85 4 32 4 16-35 15-94c0-66 23-100 70-100zm9 24c-40 0-46 34-46 75 0 40 6 74 45 74 42 0 51-32 51-76 0-42-9-74-50-73" id="cb"/><g id="l"><use transform="matrix(0.05,0,0,0.05,0,0)" xlink:href="#bv"/><use transform="matrix(0.05,0,0,0.05,12,0)" xlink:href="#bs"/><use transform="matrix(0.05,0,0,0.05,15.949999999999998,0)" xlink:href="#bz"/><use transform="matrix(0.05,0,0,0.05,19.9,0)" xlink:href="#bU"/><use transform="matrix(0.05,0,0,0.05,29.899999999999995,0)" xlink:href="#bT"/><use transform="matrix(0.05,0,0,0.05,39.9,0)" xlink:href="#bt"/><use transform="matrix(0.05,0,0,0.05,49.9,0)" xlink:href="#cb"/></g><path d="M233-177c-1 41-23 64-60 70L243 0h-38l-65-103H63V0H30v-248c88 3 205-21 203 71zM63-129c60-2 137 13 137-47 0-61-80-42-137-45v92" id="cc"/><g id="m"><use transform="matrix(0.05,0,0,0.05,0,0)" xlink:href="#cc"/><use transform="matrix(0.05,0,0,0.05,12.950000000000001,0)" xlink:href="#bt"/><use transform="matrix(0.05,0,0,0.05,22.950000000000003,0)" xlink:href="#bp"/><use transform="matrix(0.05,0,0,0.05,32.95,0)" xlink:href="#cb"/><use transform="matrix(0.05,0,0,0.05,42.95,0)" xlink:href="#bA"/></g><path d="M24-248c93 1 206-16 204 79-1 75-69 88-152 82V0H24v-248zm52 121c47 0 100 7 100-41 0-47-54-39-100-39v80" id="cd"/><g id="n"><use transform="matrix(0.07469135802469135,0,0,0.07469135802469135,0,0)" xlink:href="#cd"/><use transform="matrix(0.07469135802469135,0,0,0.07469135802469135,17.925925925925924,0)" xlink:href="#bC"/><use transform="matrix(0.07469135802469135,0,0,0.07469135802469135,32.86419753086419,0)" xlink:href="#bI"/><path d="M-1.34 1.44h53.48v2.82H-1.34z"/></g><path d="M169-182c-1-43-94-46-97-3 18 66 151 10 154 114 3 95-165 93-204 36-6-8-10-19-12-30l50-8c3 46 112 56 116 5-17-69-150-10-154-114-4-87 153-88 188-35 5 8 8 18 10 28" id="ce"/><path d="M135-194c53 0 70 44 70 98 0 56-19 98-73 100-31 1-45-17-59-34 3 33 2 69 2 105H25l-1-265h48c2 10 0 23 3 31 11-24 29-35 60-35zM114-30c33 0 39-31 40-66 0-38-9-64-40-64-56 0-55 130 0 130" id="cf"/><g id="o"><use transform="matrix(0.07469135802469135,0,0,0.07469135802469135,0,0)" xlink:href="#ce"/><use transform="matrix(0.07469135802469135,0,0,0.07469135802469135,17.925925925925924,0)" xlink:href="#bF"/><use transform="matrix(0.07469135802469135,0,0,0.07469135802469135,32.86419753086419,0)" xlink:href="#bK"/><use transform="matrix(0.07469135802469135,0,0,0.07469135802469135,56.765432098765416,0)" xlink:href="#cf"/><use transform="matrix(0.07469135802469135,0,0,0.07469135802469135,73.12283950617282,0)" xlink:href="#bD"/><use transform="matrix(0.07469135802469135,0,0,0.07469135802469135,80.59197530864196,0)" xlink:href="#bC"/><path d="M-1.34 1.44h105.7v2.82H-1.35z"/></g><path d="M140-251c80 0 125 45 125 126 0 70-33 111-92 124 6 28 34 38 68 31l-1 36C177 83 129 55 120 2 51-6 15-50 15-125c0-81 44-126 125-126zm-1 214c52 0 73-35 73-88 0-50-21-86-72-86-52 0-73 35-73 86s22 88 72 88" id="cg"/><g id="p"><use transform="matrix(0.07469135802469135,0,0,0.07469135802469135,0,0)" xlink:href="#cg"/><use transform="matrix(0.07469135802469135,0,0,0.07469135802469135,20.913580246913575,0)" xlink:href="#bB"/><path d="M-1.34 1.44H41.6v2.82H-1.33z"/></g><path d="M24 0v-248h52V0H24" id="ch"/><g id="q"><use transform="matrix(0.05,0,0,0.05,0,0)" xlink:href="#ch"/><use transform="matrix(0.05,0,0,0.05,5,0)" xlink:href="#bG"/><use transform="matrix(0.05,0,0,0.05,15.950000000000001,0)" xlink:href="#bJ"/><use transform="matrix(0.05,0,0,0.05,20.950000000000003,0)" xlink:href="#bL"/><use transform="matrix(0.05,0,0,0.05,26.900000000000002,0)" xlink:href="#bJ"/><use transform="matrix(0.05,0,0,0.05,31.900000000000002,0)" xlink:href="#bF"/><use transform="matrix(0.05,0,0,0.05,41.900000000000006,0)" xlink:href="#bD"/><path d="M-.9.97h53.7v1.9H-.9z"/></g><path d="M76-208v77h127v40H76V0H24v-248h183v40H76" id="ci"/><g id="r"><use transform="matrix(0.05,0,0,0.05,0,0)" xlink:href="#ci"/><use transform="matrix(0.05,0,0,0.05,10.950000000000001,0)" xlink:href="#bJ"/><use transform="matrix(0.05,0,0,0.05,15.950000000000001,0)" xlink:href="#bD"/><use transform="matrix(0.05,0,0,0.05,20.950000000000003,0)" xlink:href="#bL"/><use transform="matrix(0.05,0,0,0.05,26.900000000000002,0)" xlink:href="#bC"/><use transform="matrix(0.05,0,0,0.05,36.900000000000006,0)" xlink:href="#bI"/><use transform="matrix(0.05,0,0,0.05,43.900000000000006,0)" xlink:href="#bJ"/><use transform="matrix(0.05,0,0,0.05,48.900000000000006,0)" xlink:href="#bG"/><use transform="matrix(0.05,0,0,0.05,59.85,0)" xlink:href="#bH"/><path d="M-.9.97h72.6v1.9H-.9z"/></g><g id="s"><use transform="matrix(0.05,0,0,0.05,0,0)" xlink:href="#bq"/><use transform="matrix(0.05,0,0,0.05,14.950000000000001,0)" xlink:href="#bz"/><use transform="matrix(0.05,0,0,0.05,18.900000000000002,0)" xlink:href="#bx"/><use transform="matrix(0.05,0,0,0.05,32.900000000000006,0)" xlink:href="#bP"/></g><path d="M115-194c53 0 69 39 70 98 0 66-23 100-70 100C84 3 66-7 56-30L54 0H23l1-261h32v101c10-23 28-34 59-34zm-8 174c40 0 45-34 45-75 0-40-5-75-45-74-42 0-51 32-51 76 0 43 10 73 51 73" id="cj"/><g id="t"><use transform="matrix(0.05,0,0,0.05,0,0)" xlink:href="#cj"/><use transform="matrix(0.05,0,0,0.05,10,0)" xlink:href="#bp"/><use transform="matrix(0.05,0,0,0.05,20,0)" xlink:href="#bA"/><use transform="matrix(0.05,0,0,0.05,29,0)" xlink:href="#bt"/><use transform="matrix(0.05,0,0,0.05,39,0)" xlink:href="#cb"/></g><path d="M100-194c62-1 85 37 85 99 1 63-27 99-86 99S16-35 15-95c0-66 28-99 85-99zM99-20c44 1 53-31 53-75 0-43-8-75-51-75s-53 32-53 75 10 74 51 75" id="ck"/><g id="u"><use transform="matrix(0.05,0,0,0.05,0,0)" xlink:href="#ck"/><use transform="matrix(0.05,0,0,0.05,10,0)" xlink:href="#bT"/></g><path d="M59-47c-2 24 18 29 38 22v24C64 9 27 4 27-40v-127H5v-23h24l9-43h21v43h35v23H59v120" id="cl"/><path d="M84 4C-5 8 30-112 23-190h32v120c0 31 7 50 39 49 72-2 45-101 50-169h31l1 190h-30c-1-10 1-25-2-33-11 22-28 36-60 37" id="cm"/><path d="M114-163C36-179 61-72 57 0H25l-1-190h30c1 12-1 29 2 39 6-27 23-49 58-41v29" id="cn"/><g id="v"><use transform="matrix(0.05,0,0,0.05,0,0)" xlink:href="#bT"/><use transform="matrix(0.05,0,0,0.05,10,0)" xlink:href="#bu"/><use transform="matrix(0.05,0,0,0.05,20.950000000000003,0)" xlink:href="#bt"/><use transform="matrix(0.05,0,0,0.05,30.950000000000003,0)" xlink:href="#bp"/><use transform="matrix(0.05,0,0,0.05,40.95,0)" xlink:href="#cl"/><use transform="matrix(0.05,0,0,0.05,45.95,0)" xlink:href="#cm"/><use transform="matrix(0.05,0,0,0.05,55.95,0)" xlink:href="#cn"/><use transform="matrix(0.05,0,0,0.05,61.900000000000006,0)" xlink:href="#bt"/></g><g id="w"><use transform="matrix(0.05,0,0,0.05,0,0)" xlink:href="#bp"/><use transform="matrix(0.05,0,0,0.05,10,0)" xlink:href="#bT"/><use transform="matrix(0.05,0,0,0.05,20,0)" xlink:href="#cb"/></g><path d="M33 0v-38h34V0H33" id="co"/><path d="M96-169c-40 0-48 33-48 73s9 75 48 75c24 0 41-14 43-38l32 2c-6 37-31 61-74 61-59 0-76-41-82-99-10-93 101-131 147-64 4 7 5 14 7 22l-32 3c-4-21-16-35-41-35" id="cp"/><g id="x"><use transform="matrix(0.05,0,0,0.05,0,0)" xlink:href="#bq"/><use transform="matrix(0.05,0,0,0.05,14.950000000000001,0)" xlink:href="#bz"/><use transform="matrix(0.05,0,0,0.05,18.900000000000002,0)" xlink:href="#cl"/><use transform="matrix(0.05,0,0,0.05,23.900000000000002,0)" xlink:href="#ck"/><use transform="matrix(0.05,0,0,0.05,33.900000000000006,0)" xlink:href="#co"/><use transform="matrix(0.05,0,0,0.05,38.900000000000006,0)" xlink:href="#br"/><use transform="matrix(0.05,0,0,0.05,48.900000000000006,0)" xlink:href="#cp"/><use transform="matrix(0.05,0,0,0.05,57.900000000000006,0)" xlink:href="#cl"/></g><path d="M175 0L67-191c6 58 2 128 3 191H24v-248h59L193-55c-6-58-2-129-3-193h46V0h-61" id="cq"/><path d="M110-194c64 0 96 36 96 99 0 64-35 99-97 99-61 0-95-36-95-99 0-62 34-99 96-99zm-1 164c35 0 45-28 45-65 0-40-10-65-43-65-34 0-45 26-45 65 0 36 10 65 43 65" id="cr"/><path d="M12 0v-35l95-120H19v-35h142v35L67-36h103V0H12" id="cs"/><g id="y"><use transform="matrix(0.05,0,0,0.05,0,0)" xlink:href="#cq"/><use transform="matrix(0.05,0,0,0.05,12.950000000000001,0)" xlink:href="#cr"/><use transform="matrix(0.05,0,0,0.05,23.900000000000002,0)" xlink:href="#bI"/><use transform="matrix(0.05,0,0,0.05,30.900000000000002,0)" xlink:href="#bK"/><use transform="matrix(0.05,0,0,0.05,46.900000000000006,0)" xlink:href="#bF"/><use transform="matrix(0.05,0,0,0.05,56.900000000000006,0)" xlink:href="#bD"/><use transform="matrix(0.05,0,0,0.05,61.900000000000006,0)" xlink:href="#bJ"/><use transform="matrix(0.05,0,0,0.05,66.9,0)" xlink:href="#cs"/><use transform="matrix(0.05,0,0,0.05,75.9,0)" xlink:href="#bF"/><use transform="matrix(0.05,0,0,0.05,85.9,0)" xlink:href="#bL"/><use transform="matrix(0.05,0,0,0.05,91.85000000000001,0)" xlink:href="#bJ"/><use transform="matrix(0.05,0,0,0.05,96.85000000000001,0)" xlink:href="#cr"/><use transform="matrix(0.05,0,0,0.05,107.80000000000001,0)" xlink:href="#bG"/><path d="M-.9.97h120.55v1.9H-.9z"/></g><g id="z"><use transform="matrix(0.05,0,0,0.05,0,0)" xlink:href="#bo"/><use transform="matrix(0.05,0,0,0.05,12,0)" xlink:href="#bP"/><use transform="matrix(0.05,0,0,0.05,24.950000000000003,0)" xlink:href="#bw"/><use transform="matrix(0.05,0,0,0.05,35.25000000000001,0)" xlink:href="#cn"/><use transform="matrix(0.05,0,0,0.05,41.20000000000001,0)" xlink:href="#bp"/><use transform="matrix(0.05,0,0,0.05,51.20000000000002,0)" xlink:href="#bT"/><use transform="matrix(0.05,0,0,0.05,61.20000000000002,0)" xlink:href="#bA"/><use transform="matrix(0.05,0,0,0.05,70.20000000000002,0)" xlink:href="#by"/><use transform="matrix(0.05,0,0,0.05,75.20000000000002,0)" xlink:href="#ck"/><use transform="matrix(0.05,0,0,0.05,85.20000000000002,0)" xlink:href="#cn"/><use transform="matrix(0.05,0,0,0.05,91.15000000000002,0)" xlink:href="#bq"/></g><path d="M30 0v-248h33v221h125V0H30" id="ct"/><g id="A"><use transform="matrix(0.05,0,0,0.05,0,0)" xlink:href="#ct"/><use transform="matrix(0.05,0,0,0.05,10,0)" xlink:href="#ck"/><use transform="matrix(0.05,0,0,0.05,20,0)" xlink:href="#bU"/></g><path d="M9 0v-24l116-142H16v-24h144v24L44-24h123V0H9" id="cu"/><g id="B"><use transform="matrix(0.05,0,0,0.05,0,0)" xlink:href="#bT"/><use transform="matrix(0.05,0,0,0.05,10,0)" xlink:href="#ck"/><use transform="matrix(0.05,0,0,0.05,20,0)" xlink:href="#cn"/><use transform="matrix(0.05,0,0,0.05,25.950000000000003,0)" xlink:href="#bq"/><use transform="matrix(0.05,0,0,0.05,40.9,0)" xlink:href="#bp"/><use transform="matrix(0.05,0,0,0.05,50.9,0)" xlink:href="#bs"/><use transform="matrix(0.05,0,0,0.05,54.85,0)" xlink:href="#bz"/><use transform="matrix(0.05,0,0,0.05,58.800000000000004,0)" xlink:href="#cu"/><use transform="matrix(0.05,0,0,0.05,67.80000000000001,0)" xlink:href="#bp"/><use transform="matrix(0.05,0,0,0.05,77.80000000000001,0)" xlink:href="#cl"/><use transform="matrix(0.05,0,0,0.05,82.80000000000001,0)" xlink:href="#bz"/><use transform="matrix(0.05,0,0,0.05,86.75000000000001,0)" xlink:href="#ck"/><use transform="matrix(0.05,0,0,0.05,96.75000000000001,0)" xlink:href="#bT"/></g><g id="C"><use transform="matrix(0.05,0,0,0.05,0,0)" xlink:href="#bp"/><use transform="matrix(0.05,0,0,0.05,10,0)" xlink:href="#bT"/><use transform="matrix(0.05,0,0,0.05,20,0)" xlink:href="#cb"/></g><g id="D"><use transform="matrix(0.05,0,0,0.05,0,0)" xlink:href="#bA"/><use transform="matrix(0.05,0,0,0.05,9,0)" xlink:href="#cp"/><use transform="matrix(0.05,0,0,0.05,18,0)" xlink:href="#bp"/><use transform="matrix(0.05,0,0,0.05,28,0)" xlink:href="#bs"/><use transform="matrix(0.05,0,0,0.05,31.950000000000003,0)" xlink:href="#bz"/><use transform="matrix(0.05,0,0,0.05,35.9,0)" xlink:href="#bT"/><use transform="matrix(0.05,0,0,0.05,45.9,0)" xlink:href="#bU"/></g><path d="M190-63c-7 42-38 67-86 67-59 0-84-38-90-98-12-110 154-137 174-36l-49 2c-2-19-15-32-35-32-30 0-35 28-38 64-6 74 65 87 74 30" id="cv"/><g id="E"><use transform="matrix(0.05,0,0,0.05,0,0)" xlink:href="#cd"/><use transform="matrix(0.05,0,0,0.05,12,0)" xlink:href="#bI"/><use transform="matrix(0.05,0,0,0.05,19,0)" xlink:href="#bJ"/><use transform="matrix(0.05,0,0,0.05,24,0)" xlink:href="#bG"/><use transform="matrix(0.05,0,0,0.05,34.95,0)" xlink:href="#cv"/><use transform="matrix(0.05,0,0,0.05,44.95,0)" xlink:href="#bJ"/><use transform="matrix(0.05,0,0,0.05,49.95,0)" xlink:href="#cf"/><use transform="matrix(0.05,0,0,0.05,60.900000000000006,0)" xlink:href="#bF"/><use transform="matrix(0.05,0,0,0.05,70.9,0)" xlink:href="#bD"/><path d="M-.9.97h82.7v1.9H-.9z"/></g><path d="M137-138c1-29-70-34-71-4 15 46 118 7 119 86 1 83-164 76-172 9l43-7c4 19 20 25 44 25 33 8 57-30 24-41C81-84 22-81 20-136c-2-80 154-74 161-7" id="cw"/><g id="F"><use transform="matrix(0.05,0,0,0.05,0,0)" xlink:href="#cv"/><use transform="matrix(0.05,0,0,0.05,10,0)" xlink:href="#cr"/><use transform="matrix(0.05,0,0,0.05,20.950000000000003,0)" xlink:href="#bK"/><use transform="matrix(0.05,0,0,0.05,36.95,0)" xlink:href="#cf"/><use transform="matrix(0.05,0,0,0.05,47.900000000000006,0)" xlink:href="#cr"/><use transform="matrix(0.05,0,0,0.05,58.85,0)" xlink:href="#bG"/><use transform="matrix(0.05,0,0,0.05,69.80000000000001,0)" xlink:href="#bC"/><use transform="matrix(0.05,0,0,0.05,79.80000000000001,0)" xlink:href="#bG"/><use transform="matrix(0.05,0,0,0.05,90.75000000000001,0)" xlink:href="#bL"/><use transform="matrix(0.05,0,0,0.05,96.70000000000002,0)" xlink:href="#cw"/><path d="M-.9.97h108.5v1.9H-.9z"/></g><g id="G"><use transform="matrix(0.05,0,0,0.05,0,0)" xlink:href="#cw"/><use transform="matrix(0.05,0,0,0.05,10,0)" xlink:href="#bC"/><use transform="matrix(0.05,0,0,0.05,20,0)" xlink:href="#bD"/><use transform="matrix(0.05,0,0,0.05,25,0)" xlink:href="#bC"/><use transform="matrix(0.05,0,0,0.05,35,0)" xlink:href="#cv"/><use transform="matrix(0.05,0,0,0.05,45,0)" xlink:href="#bL"/><use transform="matrix(0.05,0,0,0.05,50.95,0)" xlink:href="#bJ"/><use transform="matrix(0.05,0,0,0.05,55.95,0)" xlink:href="#cr"/><use transform="matrix(0.05,0,0,0.05,66.9,0)" xlink:href="#bG"/><path d="M-.9.97h79.65v1.9H-.9z"/></g><path d="M62-168c30 0 50 19 50 48S92-70 62-70c-29 0-48-21-48-50s20-48 48-48" id="cx"/><use transform="matrix(0.05,0,0,0.05,0,0)" xlink:href="#cx" id="H"/><path d="M126-127c33 6 58 20 58 59 0 88-139 92-164 29-3-8-5-16-6-25l32-3c6 27 21 44 54 44 32 0 52-15 52-46 0-38-36-46-79-43v-28c39 1 72-4 72-42 0-27-17-43-46-43-28 0-47 15-49 41l-32-3c6-42 35-63 81-64 48-1 79 21 79 65 0 36-21 52-52 59" id="cy"/><path d="M101-251c68 0 85 55 85 127S166 4 100 4C33 4 14-52 14-124c0-73 17-127 87-127zm-1 229c47 0 54-49 54-102s-4-102-53-102c-51 0-55 48-55 102 0 53 5 102 54 102" id="cz"/><g id="I"><use transform="matrix(0.05,0,0,0.05,0,0)" xlink:href="#cy"/><use transform="matrix(0.05,0,0,0.05,10,0)" xlink:href="#cz"/></g><path d="M30-248c87 1 191-15 191 75 0 78-77 80-158 76V0H30v-248zm33 125c57 0 124 11 124-50 0-59-68-47-124-48v98" id="cA"/><g id="J"><use transform="matrix(0.05,0,0,0.05,0,0)" xlink:href="#cA"/><use transform="matrix(0.05,0,0,0.05,12,0)" xlink:href="#bP"/><use transform="matrix(0.05,0,0,0.05,24.950000000000003,0)" xlink:href="#bA"/></g><path d="M85 4C-2 5 27-109 22-190h50c7 57-23 150 33 157 60-5 35-97 40-157h50l1 190h-47c-2-12 1-28-3-38-12 25-28 42-61 42" id="cB"/><g id="K"><use transform="matrix(0.05,0,0,0.05,0,0)" xlink:href="#bB"/><use transform="matrix(0.05,0,0,0.05,12.950000000000001,0)" xlink:href="#bD"/><use transform="matrix(0.05,0,0,0.05,17.950000000000003,0)" xlink:href="#cB"/><use transform="matrix(0.05,0,0,0.05,28.900000000000006,0)" xlink:href="#cw"/><use transform="matrix(0.05,0,0,0.05,38.900000000000006,0)" xlink:href="#bL"/><use transform="matrix(0.05,0,0,0.05,44.85000000000001,0)" xlink:href="#bC"/><use transform="matrix(0.05,0,0,0.05,54.85,0)" xlink:href="#bI"/><use transform="matrix(0.05,0,0,0.05,61.85,0)" xlink:href="#bJ"/><use transform="matrix(0.05,0,0,0.05,66.85000000000001,0)" xlink:href="#bG"/><use transform="matrix(0.05,0,0,0.05,77.80000000000001,0)" xlink:href="#bH"/><path d="M-.9.97h90.55v1.9H-.9z"/></g><path d="M240 0l2-218c-23 76-54 145-80 218h-23L58-218 59 0H30v-248h44l77 211c21-75 51-140 76-211h43V0h-30" id="cC"/><g id="L"><use transform="matrix(0.05,0,0,0.05,0,0)" xlink:href="#bo"/><use transform="matrix(0.05,0,0,0.05,12,0)" xlink:href="#ct"/><use transform="matrix(0.05,0,0,0.05,22,0)" xlink:href="#cC"/></g><g id="M"><use transform="matrix(0.05,0,0,0.05,0,0)" xlink:href="#ct"/><use transform="matrix(0.05,0,0,0.05,10,0)" xlink:href="#bt"/><use transform="matrix(0.05,0,0,0.05,20,0)" xlink:href="#bz"/><use transform="matrix(0.05,0,0,0.05,23.95,0)" xlink:href="#cb"/><use transform="matrix(0.05,0,0,0.05,33.95,0)" xlink:href="#bt"/><use transform="matrix(0.05,0,0,0.05,43.95,0)" xlink:href="#bT"/></g><g id="N"><use transform="matrix(0.05,0,0,0.05,0,0)" xlink:href="#bp"/><use transform="matrix(0.05,0,0,0.05,10,0)" xlink:href="#bs"/><use transform="matrix(0.05,0,0,0.05,13.949999999999998,0)" xlink:href="#bU"/><use transform="matrix(0.05,0,0,0.05,23.95,0)" xlink:href="#ck"/><use transform="matrix(0.05,0,0,0.05,33.95,0)" xlink:href="#cn"/><use transform="matrix(0.05,0,0,0.05,39.900000000000006,0)" xlink:href="#bz"/><use transform="matrix(0.05,0,0,0.05,43.85000000000001,0)" xlink:href="#cl"/><use transform="matrix(0.05,0,0,0.05,48.85000000000001,0)" xlink:href="#bS"/><use transform="matrix(0.05,0,0,0.05,58.85,0)" xlink:href="#bq"/><use transform="matrix(0.05,0,0,0.05,73.80000000000001,0)" xlink:href="#bA"/></g><g id="O"><use transform="matrix(0.05,0,0,0.05,0,0)" xlink:href="#cc"/><use transform="matrix(0.05,0,0,0.05,12.950000000000001,0)" xlink:href="#bt"/><use transform="matrix(0.05,0,0,0.05,22.950000000000003,0)" xlink:href="#bA"/><use transform="matrix(0.05,0,0,0.05,31.950000000000003,0)" xlink:href="#ck"/><use transform="matrix(0.05,0,0,0.05,41.95,0)" xlink:href="#bs"/><use transform="matrix(0.05,0,0,0.05,45.900000000000006,0)" xlink:href="#cm"/><use transform="matrix(0.05,0,0,0.05,55.900000000000006,0)" xlink:href="#cl"/><use transform="matrix(0.05,0,0,0.05,60.900000000000006,0)" xlink:href="#bz"/><use transform="matrix(0.05,0,0,0.05,64.85000000000001,0)" xlink:href="#ck"/><use transform="matrix(0.05,0,0,0.05,74.85000000000001,0)" xlink:href="#bT"/><use transform="matrix(0.05,0,0,0.05,84.85000000000001,0)" xlink:href="#bA"/></g><g id="P"><use transform="matrix(0.05,0,0,0.05,0,0)" xlink:href="#bA"/><use transform="matrix(0.05,0,0,0.05,9,0)" xlink:href="#bt"/><use transform="matrix(0.05,0,0,0.05,19,0)" xlink:href="#bs"/><use transform="matrix(0.05,0,0,0.05,22.95,0)" xlink:href="#bt"/><use transform="matrix(0.05,0,0,0.05,32.95,0)" xlink:href="#cp"/><use transform="matrix(0.05,0,0,0.05,41.95,0)" xlink:href="#cl"/><use transform="matrix(0.05,0,0,0.05,46.95,0)" xlink:href="#bt"/><use transform="matrix(0.05,0,0,0.05,56.95,0)" xlink:href="#cb"/></g><path d="M179-190L93 31C79 59 56 82 12 73V49c39 6 53-20 64-50L1-190h34L92-34l54-156h33" id="cD"/><g id="Q"><use transform="matrix(0.05,0,0,0.05,0,0)" xlink:href="#cj"/><use transform="matrix(0.05,0,0,0.05,10,0)" xlink:href="#cD"/></g><g id="R"><use transform="matrix(0.05,0,0,0.05,0,0)" xlink:href="#cm"/><use transform="matrix(0.05,0,0,0.05,10,0)" xlink:href="#bA"/><use transform="matrix(0.05,0,0,0.05,19,0)" xlink:href="#bt"/><use transform="matrix(0.05,0,0,0.05,29,0)" xlink:href="#cn"/></g><path d="M24-248c120-7 223 5 221 122C244-46 201 0 124 0H24v-248zM76-40c74 7 117-18 117-86 0-67-45-88-117-82v168" id="cE"/><path d="M123 10C108 53 80 86 19 72V37c35 8 53-11 59-39L3-190h52l48 148c12-52 28-100 44-148h51" id="cF"/><g id="S"><use transform="matrix(0.05,0,0,0.05,0,0)" xlink:href="#cE"/><use transform="matrix(0.05,0,0,0.05,12.950000000000001,0)" xlink:href="#bJ"/><use transform="matrix(0.05,0,0,0.05,17.950000000000003,0)" xlink:href="#bK"/><use transform="matrix(0.05,0,0,0.05,33.95,0)" xlink:href="#bC"/><use transform="matrix(0.05,0,0,0.05,43.95,0)" xlink:href="#bG"/><use transform="matrix(0.05,0,0,0.05,54.900000000000006,0)" xlink:href="#cw"/><use transform="matrix(0.05,0,0,0.05,64.9,0)" xlink:href="#bJ"/><use transform="matrix(0.05,0,0,0.05,69.9,0)" xlink:href="#cr"/><use transform="matrix(0.05,0,0,0.05,80.85000000000001,0)" xlink:href="#bG"/><use transform="matrix(0.05,0,0,0.05,91.80000000000001,0)" xlink:href="#bF"/><use transform="matrix(0.05,0,0,0.05,101.80000000000001,0)" xlink:href="#bD"/><use transform="matrix(0.05,0,0,0.05,106.80000000000001,0)" xlink:href="#bJ"/><use transform="matrix(0.05,0,0,0.05,111.80000000000001,0)" xlink:href="#bL"/><use transform="matrix(0.05,0,0,0.05,117.75,0)" xlink:href="#cF"/><path d="M-.9.97h134.55v1.9H-.9z"/></g><path d="M88-194c31-1 46 15 58 34l-1-101h50l1 261h-48c-2-10 0-23-3-31C134-8 116 4 84 4 32 4 16-41 15-95c0-56 19-97 73-99zm17 164c33 0 40-30 41-66 1-37-9-64-41-64s-38 30-39 65c0 43 13 65 39 65" id="cG"/><g id="T"><use transform="matrix(0.05,0,0,0.05,0,0)" xlink:href="#bI"/><use transform="matrix(0.05,0,0,0.05,7,0)" xlink:href="#bC"/><use transform="matrix(0.05,0,0,0.05,17,0)" xlink:href="#cG"/><use transform="matrix(0.05,0,0,0.05,27.950000000000003,0)" xlink:href="#cB"/><use transform="matrix(0.05,0,0,0.05,38.900000000000006,0)" xlink:href="#cv"/><use transform="matrix(0.05,0,0,0.05,48.900000000000006,0)" xlink:href="#bL"/><use transform="matrix(0.05,0,0,0.05,54.85,0)" xlink:href="#bJ"/><use transform="matrix(0.05,0,0,0.05,59.85,0)" xlink:href="#cr"/><use transform="matrix(0.05,0,0,0.05,70.80000000000001,0)" xlink:href="#bG"/><path d="M-.9.97h83.55v1.9H-.9z"/></g><path d="M232-93c-1 65-40 97-104 97C67 4 28-28 28-90v-158h33c8 89-33 224 67 224 102 0 64-133 71-224h33v155" id="cH"/><g id="U"><use transform="matrix(0.05,0,0,0.05,0,0)" xlink:href="#cH"/><use transform="matrix(0.05,0,0,0.05,12.950000000000001,0)" xlink:href="#cC"/><use transform="matrix(0.05,0,0,0.05,27.900000000000002,0)" xlink:href="#bv"/><use transform="matrix(0.05,0,0,0.05,39.900000000000006,0)" xlink:href="#cA"/></g><path d="M135-194c52 0 70 43 70 98 0 56-19 99-73 100-30 1-46-15-58-35L72 0H24l1-261h50v104c11-23 29-37 60-37zM114-30c31 0 40-27 40-66 0-37-7-63-39-63s-41 28-41 65c0 36 8 64 40 64" id="cI"/><g id="V"><use transform="matrix(0.05,0,0,0.05,0,0)" xlink:href="#cE"/><use transform="matrix(0.05,0,0,0.05,12.950000000000001,0)" xlink:href="#cr"/><use transform="matrix(0.05,0,0,0.05,23.900000000000002,0)" xlink:href="#cB"/><use transform="matrix(0.05,0,0,0.05,34.85,0)" xlink:href="#cI"/><use transform="matrix(0.05,0,0,0.05,45.800000000000004,0)" xlink:href="#bD"/><use transform="matrix(0.05,0,0,0.05,50.800000000000004,0)" xlink:href="#bC"/><use transform="matrix(0.05,0,0,0.05,60.800000000000004,0)" xlink:href="#bL"/><path d="M-.9.97h73.55v1.9H-.9z"/></g><path d="M128 0H69L1-190h53L99-40l48-150h52" id="cJ"/><g id="W"><use transform="matrix(0.05,0,0,0.05,0,0)" xlink:href="#bI"/><use transform="matrix(0.05,0,0,0.05,7,0)" xlink:href="#bC"/><use transform="matrix(0.05,0,0,0.05,17,0)" xlink:href="#bK"/><use transform="matrix(0.05,0,0,0.05,33,0)" xlink:href="#cr"/><use transform="matrix(0.05,0,0,0.05,43.95,0)" xlink:href="#cJ"/><use transform="matrix(0.05,0,0,0.05,53.95,0)" xlink:href="#bF"/><use transform="matrix(0.05,0,0,0.05,63.95,0)" xlink:href="#bD"/><path d="M-.9.97h70.75v1.9H-.9z"/></g><g id="X"><use transform="matrix(0.05,0,0,0.05,0,0)" xlink:href="#bX"/><use transform="matrix(0.05,0,0,0.05,12.950000000000001,0)" xlink:href="#ck"/><use transform="matrix(0.05,0,0,0.05,22.950000000000003,0)" xlink:href="#cm"/><use transform="matrix(0.05,0,0,0.05,32.95,0)" xlink:href="#cj"/><use transform="matrix(0.05,0,0,0.05,42.95,0)" xlink:href="#bs"/><use transform="matrix(0.05,0,0,0.05,46.900000000000006,0)" xlink:href="#bt"/><use transform="matrix(0.05,0,0,0.05,56.900000000000006,0)" xlink:href="#cl"/></g><g id="Y"><use transform="matrix(0.05,0,0,0.05,0,0)" xlink:href="#bu"/><use transform="matrix(0.05,0,0,0.05,10.950000000000001,0)" xlink:href="#bz"/><use transform="matrix(0.05,0,0,0.05,14.9,0)" xlink:href="#bT"/><use transform="matrix(0.05,0,0,0.05,24.900000000000002,0)" xlink:href="#cb"/><use transform="matrix(0.05,0,0,0.05,34.900000000000006,0)" xlink:href="#bt"/><use transform="matrix(0.05,0,0,0.05,44.900000000000006,0)" xlink:href="#cn"/></g><g id="Z"><use transform="matrix(0.05,0,0,0.05,0,0)" xlink:href="#bB"/><use transform="matrix(0.05,0,0,0.05,12.950000000000001,0)" xlink:href="#bC"/><use transform="matrix(0.05,0,0,0.05,22.950000000000003,0)" xlink:href="#bD"/><use transform="matrix(0.05,0,0,0.05,27.950000000000003,0)" xlink:href="#bD"/><path d="M-.9.97h39.75v1.9H-.9z"/></g><g id="aa"><use transform="matrix(0.05,0,0,0.05,0,0)" xlink:href="#bL"/><use transform="matrix(0.05,0,0,0.05,5.95,0)" xlink:href="#cF"/><use transform="matrix(0.05,0,0,0.05,15.949999999999998,0)" xlink:href="#cf"/><use transform="matrix(0.05,0,0,0.05,26.899999999999995,0)" xlink:href="#bC"/><path d="M-.9.97h43.7v1.9H-.9z"/></g><g id="ab"><use transform="matrix(0.05,0,0,0.05,0,0)" xlink:href="#bF"/><use transform="matrix(0.05,0,0,0.05,10,0)" xlink:href="#bG"/><use transform="matrix(0.05,0,0,0.05,20.950000000000003,0)" xlink:href="#bG"/><use transform="matrix(0.05,0,0,0.05,31.900000000000006,0)" xlink:href="#cr"/><use transform="matrix(0.05,0,0,0.05,42.85000000000001,0)" xlink:href="#bL"/><use transform="matrix(0.05,0,0,0.05,48.80000000000001,0)" xlink:href="#bF"/><use transform="matrix(0.05,0,0,0.05,58.80000000000001,0)" xlink:href="#bL"/><use transform="matrix(0.05,0,0,0.05,64.75000000000001,0)" xlink:href="#bJ"/><use transform="matrix(0.05,0,0,0.05,69.75000000000001,0)" xlink:href="#cr"/><use transform="matrix(0.05,0,0,0.05,80.70000000000002,0)" xlink:href="#bG"/><path d="M-.9.97h93.45v1.9H-.9z"/></g><g id="ac"><use transform="matrix(0.05,0,0,0.05,0,0)" xlink:href="#bP"/><use transform="matrix(0.05,0,0,0.05,12.950000000000001,0)" xlink:href="#bt"/><use transform="matrix(0.05,0,0,0.05,22.950000000000003,0)" xlink:href="#bs"/><use transform="matrix(0.05,0,0,0.05,26.900000000000002,0)" xlink:href="#bs"/></g><g id="ad"><use transform="matrix(0.05,0,0,0.05,0,0)" xlink:href="#cp"/><use transform="matrix(0.05,0,0,0.05,9,0)" xlink:href="#cD"/><use transform="matrix(0.05,0,0,0.05,18,0)" xlink:href="#cp"/><use transform="matrix(0.05,0,0,0.05,27,0)" xlink:href="#bs"/><use transform="matrix(0.05,0,0,0.05,30.950000000000003,0)" xlink:href="#bt"/></g><g id="ae"><use transform="matrix(0.05,0,0,0.05,0,0)" xlink:href="#bo"/><use transform="matrix(0.05,0,0,0.05,12,0)" xlink:href="#bz"/><use transform="matrix(0.05,0,0,0.05,15.949999999999998,0)" xlink:href="#bT"/><use transform="matrix(0.05,0,0,0.05,25.950000000000003,0)" xlink:href="#bU"/><use transform="matrix(0.05,0,0,0.05,35.95,0)" xlink:href="#bs"/><use transform="matrix(0.05,0,0,0.05,39.900000000000006,0)" xlink:href="#bt"/><use transform="matrix(0.05,0,0,0.05,49.900000000000006,0)" xlink:href="#cc"/></g><g id="af"><use transform="matrix(0.05,0,0,0.05,0,0)" xlink:href="#bW"/><use transform="matrix(0.05,0,0,0.05,5.95,0)" xlink:href="#cb"/><use transform="matrix(0.05,0,0,0.05,15.949999999999998,0)" xlink:href="#bt"/><use transform="matrix(0.05,0,0,0.05,25.950000000000003,0)" xlink:href="#by"/><use transform="matrix(0.05,0,0,0.05,30.950000000000003,0)" xlink:href="#bp"/><use transform="matrix(0.05,0,0,0.05,40.95,0)" xlink:href="#cm"/><use transform="matrix(0.05,0,0,0.05,50.95,0)" xlink:href="#bs"/><use transform="matrix(0.05,0,0,0.05,54.900000000000006,0)" xlink:href="#cl"/></g><g id="ag"><use transform="matrix(0.05,0,0,0.05,0,0)" xlink:href="#cp"/><use transform="matrix(0.05,0,0,0.05,9,0)" xlink:href="#bS"/><use transform="matrix(0.05,0,0,0.05,19,0)" xlink:href="#ck"/><use transform="matrix(0.05,0,0,0.05,29,0)" xlink:href="#bA"/><use transform="matrix(0.05,0,0,0.05,38,0)" xlink:href="#bt"/><use transform="matrix(0.05,0,0,0.05,48,0)" xlink:href="#bT"/></g><g id="ah"><use transform="matrix(0.05,0,0,0.05,0,0)" xlink:href="#cj"/><use transform="matrix(0.05,0,0,0.05,10,0)" xlink:href="#cD"/></g><g id="ai"><use transform="matrix(0.05,0,0,0.05,0,0)" xlink:href="#cm"/><use transform="matrix(0.05,0,0,0.05,10,0)" xlink:href="#bA"/><use transform="matrix(0.05,0,0,0.05,19,0)" xlink:href="#bt"/><use transform="matrix(0.05,0,0,0.05,29,0)" xlink:href="#cn"/><use transform="matrix(0.05,0,0,0.05,34.95,0)" xlink:href="#bY"/></g><g id="aj"><use transform="matrix(0.05,0,0,0.05,0,0)" xlink:href="#bu"/><use transform="matrix(0.05,0,0,0.05,10.950000000000001,0)" xlink:href="#bz"/><use transform="matrix(0.05,0,0,0.05,14.9,0)" xlink:href="#bs"/><use transform="matrix(0.05,0,0,0.05,18.85,0)" xlink:href="#cl"/><use transform="matrix(0.05,0,0,0.05,23.85,0)" xlink:href="#bt"/><use transform="matrix(0.05,0,0,0.05,33.85,0)" xlink:href="#cn"/><use transform="matrix(0.05,0,0,0.05,39.800000000000004,0)" xlink:href="#bt"/><use transform="matrix(0.05,0,0,0.05,49.800000000000004,0)" xlink:href="#cb"/></g><g id="ak"><use transform="matrix(0.05,0,0,0.05,0,0)" xlink:href="#bo"/><use transform="matrix(0.05,0,0,0.05,12,0)" xlink:href="#bp"/><use transform="matrix(0.05,0,0,0.05,22,0)" xlink:href="#bq"/><use transform="matrix(0.05,0,0,0.05,36.95,0)" xlink:href="#br"/><use transform="matrix(0.05,0,0,0.05,46.95,0)" xlink:href="#bs"/><use transform="matrix(0.05,0,0,0.05,50.900000000000006,0)" xlink:href="#bt"/><use transform="matrix(0.05,0,0,0.05,60.900000000000006,0)" xlink:href="#bA"/></g><g id="al"><use transform="matrix(0.05,0,0,0.05,0,0)" xlink:href="#bx"/><use transform="matrix(0.05,0,0,0.05,14,0)" xlink:href="#bP"/></g><g id="am"><use transform="matrix(0.05,0,0,0.05,0,0)" xlink:href="#cc"/><use transform="matrix(0.05,0,0,0.05,12.950000000000001,0)" xlink:href="#bt"/><use transform="matrix(0.05,0,0,0.05,22.950000000000003,0)" xlink:href="#br"/><use transform="matrix(0.05,0,0,0.05,32.95,0)" xlink:href="#ck"/><use transform="matrix(0.05,0,0,0.05,42.95,0)" xlink:href="#cn"/><use transform="matrix(0.05,0,0,0.05,48.900000000000006,0)" xlink:href="#cl"/><use transform="matrix(0.05,0,0,0.05,53.900000000000006,0)" xlink:href="#bA"/></g><g id="an"><use transform="matrix(0.05,0,0,0.05,0,0)" xlink:href="#bu"/><use transform="matrix(0.05,0,0,0.05,10.950000000000001,0)" xlink:href="#bz"/><use transform="matrix(0.05,0,0,0.05,14.9,0)" xlink:href="#cl"/><use transform="matrix(0.05,0,0,0.05,19.900000000000002,0)" xlink:href="#bs"/><use transform="matrix(0.05,0,0,0.05,23.85,0)" xlink:href="#cl"/><use transform="matrix(0.05,0,0,0.05,28.85,0)" xlink:href="#bt"/><use transform="matrix(0.05,0,0,0.05,38.85,0)" xlink:href="#cn"/><use transform="matrix(0.05,0,0,0.05,44.800000000000004,0)" xlink:href="#bt"/><use transform="matrix(0.05,0,0,0.05,54.800000000000004,0)" xlink:href="#cb"/></g><g id="ao"><use transform="matrix(0.05,0,0,0.05,0,0)" xlink:href="#bu"/><use transform="matrix(0.05,0,0,0.05,10.950000000000001,0)" xlink:href="#bz"/><use transform="matrix(0.05,0,0,0.05,14.9,0)" xlink:href="#bs"/><use transform="matrix(0.05,0,0,0.05,18.85,0)" xlink:href="#cl"/><use transform="matrix(0.05,0,0,0.05,23.85,0)" xlink:href="#bt"/><use transform="matrix(0.05,0,0,0.05,33.85,0)" xlink:href="#cn"/><use transform="matrix(0.05,0,0,0.05,39.800000000000004,0)" xlink:href="#bt"/><use transform="matrix(0.05,0,0,0.05,49.800000000000004,0)" xlink:href="#cb"/></g><g id="ap"><use transform="matrix(0.05,0,0,0.05,0,0)" xlink:href="#bo"/><use transform="matrix(0.05,0,0,0.05,12,0)" xlink:href="#bp"/><use transform="matrix(0.05,0,0,0.05,22,0)" xlink:href="#bq"/><use transform="matrix(0.05,0,0,0.05,36.95,0)" xlink:href="#br"/><use transform="matrix(0.05,0,0,0.05,46.95,0)" xlink:href="#bs"/><use transform="matrix(0.05,0,0,0.05,50.900000000000006,0)" xlink:href="#bt"/><use transform="matrix(0.05,0,0,0.05,60.900000000000006,0)" xlink:href="#bA"/></g><g id="aq"><use transform="matrix(0.07407407407407408,0,0,0.07407407407407408,0,0)" xlink:href="#ce"/><use transform="matrix(0.07407407407407408,0,0,0.07407407407407408,17.77777777777778,0)" xlink:href="#bF"/><use transform="matrix(0.07407407407407408,0,0,0.07407407407407408,32.592592592592595,0)" xlink:href="#bK"/><use transform="matrix(0.07407407407407408,0,0,0.07407407407407408,56.296296296296305,0)" xlink:href="#cf"/><use transform="matrix(0.07407407407407408,0,0,0.07407407407407408,72.51851851851853,0)" xlink:href="#bD"/><use transform="matrix(0.07407407407407408,0,0,0.07407407407407408,79.92592592592594,0)" xlink:href="#bC"/><path d="M-1.33 1.43h104.8v2.8H-1.32z"/></g><g id="ar"><use transform="matrix(0.07407407407407408,0,0,0.07407407407407408,0,0)" xlink:href="#ch"/><use transform="matrix(0.07407407407407408,0,0,0.07407407407407408,7.407407407407408,0)" xlink:href="#bG"/><use transform="matrix(0.07407407407407408,0,0,0.07407407407407408,23.629629629629633,0)" xlink:href="#bL"/><use transform="matrix(0.07407407407407408,0,0,0.07407407407407408,32.44444444444445,0)" xlink:href="#bC"/><use transform="matrix(0.07407407407407408,0,0,0.07407407407407408,47.25925925925927,0)" xlink:href="#bH"/><use transform="matrix(0.07407407407407408,0,0,0.07407407407407408,63.481481481481495,0)" xlink:href="#bI"/><use transform="matrix(0.07407407407407408,0,0,0.07407407407407408,73.85185185185186,0)" xlink:href="#bF"/><use transform="matrix(0.07407407407407408,0,0,0.07407407407407408,88.66666666666667,0)" xlink:href="#bL"/><use transform="matrix(0.07407407407407408,0,0,0.07407407407407408,97.4814814814815,0)" xlink:href="#bJ"/><use transform="matrix(0.07407407407407408,0,0,0.07407407407407408,104.8888888888889,0)" xlink:href="#cr"/><use transform="matrix(0.07407407407407408,0,0,0.07407407407407408,121.11111111111113,0)" xlink:href="#bG"/><path d="M-1.33 1.43h140v2.8h-140z"/></g><g id="as"><use transform="matrix(0.05,0,0,0.05,0,0)" xlink:href="#ce"/><use transform="matrix(0.05,0,0,0.05,12,0)" xlink:href="#bF"/><use transform="matrix(0.05,0,0,0.05,22,0)" xlink:href="#bK"/><use transform="matrix(0.05,0,0,0.05,38,0)" xlink:href="#cf"/><use transform="matrix(0.05,0,0,0.05,48.95,0)" xlink:href="#bD"/><use transform="matrix(0.05,0,0,0.05,53.95,0)" xlink:href="#bC"/><path d="M-.9.97h70.75v1.9H-.9z"/></g><g id="at"><use transform="matrix(0.05,0,0,0.05,0,0)" xlink:href="#bJ"/><use transform="matrix(0.05,0,0,0.05,5,0)" xlink:href="#bG"/><use transform="matrix(0.05,0,0,0.05,15.950000000000001,0)" xlink:href="#bL"/><use transform="matrix(0.05,0,0,0.05,21.900000000000002,0)" xlink:href="#bC"/><use transform="matrix(0.05,0,0,0.05,31.900000000000002,0)" xlink:href="#bH"/><use transform="matrix(0.05,0,0,0.05,42.85,0)" xlink:href="#bI"/><use transform="matrix(0.05,0,0,0.05,49.85,0)" xlink:href="#bF"/><use transform="matrix(0.05,0,0,0.05,59.85,0)" xlink:href="#bL"/><use transform="matrix(0.05,0,0,0.05,65.8,0)" xlink:href="#bJ"/><use transform="matrix(0.05,0,0,0.05,70.8,0)" xlink:href="#cr"/><use transform="matrix(0.05,0,0,0.05,81.75,0)" xlink:href="#bG"/><path d="M-.9.97h94.5v1.9H-.9z"/></g><g id="au"><use transform="matrix(0.05,0,0,0.05,0,0)" xlink:href="#cC"/><use transform="matrix(0.05,0,0,0.05,14.950000000000001,0)" xlink:href="#bt"/><use transform="matrix(0.05,0,0,0.05,24.950000000000003,0)" xlink:href="#cn"/><use transform="matrix(0.05,0,0,0.05,30.900000000000002,0)" xlink:href="#bU"/><use transform="matrix(0.05,0,0,0.05,40.900000000000006,0)" xlink:href="#bt"/><use transform="matrix(0.05,0,0,0.05,50.900000000000006,0)" xlink:href="#cb"/></g><g id="av"><use transform="matrix(0.05,0,0,0.05,0,0)" xlink:href="#bW"/><use transform="matrix(0.05,0,0,0.05,5.95,0)" xlink:href="#bT"/><use transform="matrix(0.05,0,0,0.05,15.949999999999998,0)" xlink:href="#ck"/></g><g id="aw"><use transform="matrix(0.05,0,0,0.05,0,0)" xlink:href="#cj"/><use transform="matrix(0.05,0,0,0.05,10,0)" xlink:href="#bp"/><use transform="matrix(0.05,0,0,0.05,20,0)" xlink:href="#cl"/><use transform="matrix(0.05,0,0,0.05,25,0)" xlink:href="#cp"/><use transform="matrix(0.05,0,0,0.05,34,0)" xlink:href="#bS"/></g><g id="ax"><use transform="matrix(0.05,0,0,0.05,0,0)" xlink:href="#cp"/><use transform="matrix(0.05,0,0,0.05,9,0)" xlink:href="#ck"/><use transform="matrix(0.05,0,0,0.05,19,0)" xlink:href="#cn"/><use transform="matrix(0.05,0,0,0.05,24.95,0)" xlink:href="#cn"/><use transform="matrix(0.05,0,0,0.05,30.899999999999995,0)" xlink:href="#bt"/><use transform="matrix(0.05,0,0,0.05,40.9,0)" xlink:href="#cp"/><use transform="matrix(0.05,0,0,0.05,49.9,0)" xlink:href="#cl"/><use transform="matrix(0.05,0,0,0.05,54.900000000000006,0)" xlink:href="#bz"/><use transform="matrix(0.05,0,0,0.05,58.85,0)" xlink:href="#ck"/><use transform="matrix(0.05,0,0,0.05,68.85,0)" xlink:href="#bT"/><use transform="matrix(0.05,0,0,0.05,78.85,0)" xlink:href="#bY"/></g><g id="ay"><use transform="matrix(0.05,0,0,0.05,0,0)" xlink:href="#bP"/><use transform="matrix(0.05,0,0,0.05,12.950000000000001,0)" xlink:href="#bP"/><use transform="matrix(0.05,0,0,0.05,25.900000000000002,0)" xlink:href="#bv"/></g><g id="az"><use transform="matrix(0.05,0,0,0.05,0,0)" xlink:href="#bW"/><use transform="matrix(0.05,0,0,0.05,5.95,0)" xlink:href="#bo"/><use transform="matrix(0.05,0,0,0.05,17.95,0)" xlink:href="#bt"/><use transform="matrix(0.05,0,0,0.05,27.950000000000003,0)" xlink:href="#cm"/><use transform="matrix(0.05,0,0,0.05,37.95,0)" xlink:href="#cn"/><use transform="matrix(0.05,0,0,0.05,43.900000000000006,0)" xlink:href="#bp"/><use transform="matrix(0.05,0,0,0.05,53.900000000000006,0)" xlink:href="#cl"/></g><g id="aA"><use transform="matrix(0.05,0,0,0.05,0,0)" xlink:href="#bz"/><use transform="matrix(0.05,0,0,0.05,3.95,0)" xlink:href="#bT"/><use transform="matrix(0.05,0,0,0.05,13.949999999999998,0)" xlink:href="#cl"/><use transform="matrix(0.05,0,0,0.05,18.95,0)" xlink:href="#bt"/><use transform="matrix(0.05,0,0,0.05,28.950000000000003,0)" xlink:href="#bU"/><use transform="matrix(0.05,0,0,0.05,38.95,0)" xlink:href="#cn"/><use transform="matrix(0.05,0,0,0.05,44.900000000000006,0)" xlink:href="#bp"/><use transform="matrix(0.05,0,0,0.05,54.900000000000006,0)" xlink:href="#cl"/><use transform="matrix(0.05,0,0,0.05,59.900000000000006,0)" xlink:href="#bz"/><use transform="matrix(0.05,0,0,0.05,63.85,0)" xlink:href="#ck"/><use transform="matrix(0.05,0,0,0.05,73.85000000000001,0)" xlink:href="#bT"/><use transform="matrix(0.05,0,0,0.05,83.85000000000001,0)" xlink:href="#bY"/></g><g id="aB"><use transform="matrix(0.05,0,0,0.05,0,0)" xlink:href="#cc"/><use transform="matrix(0.05,0,0,0.05,12.950000000000001,0)" xlink:href="#bt"/><use transform="matrix(0.05,0,0,0.05,22.950000000000003,0)" xlink:href="#cp"/><use transform="matrix(0.05,0,0,0.05,31.950000000000003,0)" xlink:href="#bz"/><use transform="matrix(0.05,0,0,0.05,35.900000000000006,0)" xlink:href="#br"/><use transform="matrix(0.05,0,0,0.05,45.900000000000006,0)" xlink:href="#cn"/><use transform="matrix(0.05,0,0,0.05,51.85,0)" xlink:href="#ck"/><use transform="matrix(0.05,0,0,0.05,61.85,0)" xlink:href="#cp"/><use transform="matrix(0.05,0,0,0.05,70.85000000000001,0)" xlink:href="#bp"/><use transform="matrix(0.05,0,0,0.05,80.85000000000001,0)" xlink:href="#bs"/></g><g id="aC"><use transform="matrix(0.05,0,0,0.05,0,0)" xlink:href="#cA"/><use transform="matrix(0.05,0,0,0.05,12,0)" xlink:href="#bP"/><use transform="matrix(0.05,0,0,0.05,24.950000000000003,0)" xlink:href="#bv"/></g><g id="aD"><use transform="matrix(0.05,0,0,0.05,0,0)" xlink:href="#cc"/><use transform="matrix(0.05,0,0,0.05,12.950000000000001,0)" xlink:href="#cA"/><use transform="matrix(0.05,0,0,0.05,24.950000000000003,0)" xlink:href="#bP"/><use transform="matrix(0.05,0,0,0.05,37.900000000000006,0)" xlink:href="#bv"/><use transform="matrix(0.05,0,0,0.05,49.900000000000006,0)" xlink:href="#bY"/></g><path d="M197 0v-115H63V0H30v-248h33v105h134v-105h34V0h-34" id="cK"/><g id="aE"><use transform="matrix(0.05,0,0,0.05,0,0)" xlink:href="#cK"/><use transform="matrix(0.05,0,0,0.05,12.950000000000001,0)" xlink:href="#bp"/><use transform="matrix(0.05,0,0,0.05,22.950000000000003,0)" xlink:href="#cn"/><use transform="matrix(0.05,0,0,0.05,28.900000000000002,0)" xlink:href="#bq"/><use transform="matrix(0.05,0,0,0.05,43.85,0)" xlink:href="#ck"/><use transform="matrix(0.05,0,0,0.05,53.85,0)" xlink:href="#bT"/><use transform="matrix(0.05,0,0,0.05,63.85,0)" xlink:href="#cD"/></g><g id="aF"><use transform="matrix(0.05,0,0,0.05,0,0)" xlink:href="#bW"/><use transform="matrix(0.05,0,0,0.05,5.95,0)" xlink:href="#bU"/><use transform="matrix(0.05,0,0,0.05,15.949999999999998,0)" xlink:href="#cn"/><use transform="matrix(0.05,0,0,0.05,21.9,0)" xlink:href="#ck"/><use transform="matrix(0.05,0,0,0.05,31.899999999999995,0)" xlink:href="#cm"/><use transform="matrix(0.05,0,0,0.05,41.9,0)" xlink:href="#br"/><use transform="matrix(0.05,0,0,0.05,51.900000000000006,0)" xlink:href="#bY"/></g><g id="aG"><use transform="matrix(0.05,0,0,0.05,0,0)" xlink:href="#bW"/><use transform="matrix(0.05,0,0,0.05,5.95,0)" xlink:href="#bA"/><use transform="matrix(0.05,0,0,0.05,14.949999999999998,0)" xlink:href="#bp"/><use transform="matrix(0.05,0,0,0.05,24.95,0)" xlink:href="#bq"/><use transform="matrix(0.05,0,0,0.05,39.9,0)" xlink:href="#br"/><use transform="matrix(0.05,0,0,0.05,49.9,0)" xlink:href="#bs"/><use transform="matrix(0.05,0,0,0.05,53.85,0)" xlink:href="#bt"/><use transform="matrix(0.05,0,0,0.05,63.85,0)" xlink:href="#bY"/></g><g id="aH"><use transform="matrix(0.05,0,0,0.05,0,0)" xlink:href="#bE"/><use transform="matrix(0.05,0,0,0.05,12.950000000000001,0)" xlink:href="#bC"/><use transform="matrix(0.05,0,0,0.05,22.950000000000003,0)" xlink:href="#cG"/><use transform="matrix(0.05,0,0,0.05,33.900000000000006,0)" xlink:href="#cB"/><use transform="matrix(0.05,0,0,0.05,44.85000000000001,0)" xlink:href="#cv"/><use transform="matrix(0.05,0,0,0.05,54.85,0)" xlink:href="#bL"/><use transform="matrix(0.05,0,0,0.05,60.80000000000001,0)" xlink:href="#bJ"/><use transform="matrix(0.05,0,0,0.05,65.80000000000001,0)" xlink:href="#cr"/><use transform="matrix(0.05,0,0,0.05,76.75000000000001,0)" xlink:href="#bG"/><path d="M-.9.97h89.5v1.9H-.9z"/></g><g id="aI"><use transform="matrix(0.05,0,0,0.05,0,0)" xlink:href="#cA"/><use transform="matrix(0.05,0,0,0.05,12,0)" xlink:href="#bP"/><use transform="matrix(0.05,0,0,0.05,24.950000000000003,0)" xlink:href="#bv"/></g><g id="aJ"><use transform="matrix(0.05,0,0,0.05,0,0)" xlink:href="#bW"/><use transform="matrix(0.05,0,0,0.05,5.95,0)" xlink:href="#bX"/><use transform="matrix(0.05,0,0,0.05,18.900000000000002,0)" xlink:href="#bt"/><use transform="matrix(0.05,0,0,0.05,28.900000000000002,0)" xlink:href="#by"/><use transform="matrix(0.05,0,0,0.05,33.900000000000006,0)" xlink:href="#bp"/><use transform="matrix(0.05,0,0,0.05,43.900000000000006,0)" xlink:href="#cm"/><use transform="matrix(0.05,0,0,0.05,53.900000000000006,0)" xlink:href="#bs"/><use transform="matrix(0.05,0,0,0.05,57.85,0)" xlink:href="#cl"/></g><g id="aK"><use transform="matrix(0.05,0,0,0.05,0,0)" xlink:href="#ca"/><use transform="matrix(0.05,0,0,0.05,10,0)" xlink:href="#cz"/></g><g id="aL"><use transform="matrix(0.05,0,0,0.05,0,0)" xlink:href="#cA"/><use transform="matrix(0.05,0,0,0.05,12,0)" xlink:href="#bP"/><use transform="matrix(0.05,0,0,0.05,24.950000000000003,0)" xlink:href="#bA"/><use transform="matrix(0.05,0,0,0.05,33.95,0)" xlink:href="#bY"/></g><g id="aM"><use transform="matrix(0.05,0,0,0.05,0,0)" xlink:href="#cH"/><use transform="matrix(0.05,0,0,0.05,12.950000000000001,0)" xlink:href="#cC"/><use transform="matrix(0.05,0,0,0.05,27.900000000000002,0)" xlink:href="#bv"/><use transform="matrix(0.05,0,0,0.05,39.900000000000006,0)" xlink:href="#cA"/></g><g id="aN"><use transform="matrix(0.05,0,0,0.05,0,0)" xlink:href="#bB"/><use transform="matrix(0.05,0,0,0.05,12.950000000000001,0)" xlink:href="#bD"/><use transform="matrix(0.05,0,0,0.05,17.950000000000003,0)" xlink:href="#cB"/><use transform="matrix(0.05,0,0,0.05,28.900000000000006,0)" xlink:href="#cw"/><use transform="matrix(0.05,0,0,0.05,38.900000000000006,0)" xlink:href="#bL"/><use transform="matrix(0.05,0,0,0.05,44.85000000000001,0)" xlink:href="#bC"/><use transform="matrix(0.05,0,0,0.05,54.85,0)" xlink:href="#bI"/><use transform="matrix(0.05,0,0,0.05,61.85,0)" xlink:href="#bJ"/><use transform="matrix(0.05,0,0,0.05,66.85000000000001,0)" xlink:href="#bG"/><use transform="matrix(0.05,0,0,0.05,77.80000000000001,0)" xlink:href="#bH"/><path d="M-.9.97h90.55v1.9H-.9z"/></g><g id="aO"><use transform="matrix(0.05,0,0,0.05,0,0)" xlink:href="#bo"/><use transform="matrix(0.05,0,0,0.05,12,0)" xlink:href="#bp"/><use transform="matrix(0.05,0,0,0.05,22,0)" xlink:href="#bq"/><use transform="matrix(0.05,0,0,0.05,36.95,0)" xlink:href="#bt"/></g><path d="M16-82v-28h88v28H16" id="cL"/><g id="aP"><use transform="matrix(0.05,0,0,0.05,0,0)" xlink:href="#cm"/><use transform="matrix(0.05,0,0,0.05,10,0)" xlink:href="#bA"/><use transform="matrix(0.05,0,0,0.05,19,0)" xlink:href="#bt"/><use transform="matrix(0.05,0,0,0.05,29,0)" xlink:href="#cn"/><use transform="matrix(0.05,0,0,0.05,34.95,0)" xlink:href="#cL"/><use transform="matrix(0.05,0,0,0.05,40.900000000000006,0)" xlink:href="#cb"/><use transform="matrix(0.05,0,0,0.05,50.900000000000006,0)" xlink:href="#bt"/><use transform="matrix(0.05,0,0,0.05,60.900000000000006,0)" xlink:href="#by"/><use transform="matrix(0.05,0,0,0.05,65.9,0)" xlink:href="#bz"/><use transform="matrix(0.05,0,0,0.05,69.85000000000001,0)" xlink:href="#bT"/><use transform="matrix(0.05,0,0,0.05,79.85000000000001,0)" xlink:href="#bt"/><use transform="matrix(0.05,0,0,0.05,89.85000000000001,0)" xlink:href="#cb"/></g><g id="aQ"><use transform="matrix(0.05,0,0,0.05,0,0)" xlink:href="#cn"/><use transform="matrix(0.05,0,0,0.05,5.95,0)" xlink:href="#bt"/><use transform="matrix(0.05,0,0,0.05,15.949999999999998,0)" xlink:href="#bA"/><use transform="matrix(0.05,0,0,0.05,24.95,0)" xlink:href="#ck"/><use transform="matrix(0.05,0,0,0.05,34.95,0)" xlink:href="#bs"/><use transform="matrix(0.05,0,0,0.05,38.900000000000006,0)" xlink:href="#cm"/><use transform="matrix(0.05,0,0,0.05,48.900000000000006,0)" xlink:href="#cl"/><use transform="matrix(0.05,0,0,0.05,53.900000000000006,0)" xlink:href="#bz"/><use transform="matrix(0.05,0,0,0.05,57.85,0)" xlink:href="#ck"/><use transform="matrix(0.05,0,0,0.05,67.85000000000001,0)" xlink:href="#bT"/><use transform="matrix(0.05,0,0,0.05,77.85000000000001,0)" xlink:href="#bA"/></g><g id="aR"><use transform="matrix(0.05,0,0,0.05,0,0)" xlink:href="#cw"/><use transform="matrix(0.05,0,0,0.05,10,0)" xlink:href="#bC"/><use transform="matrix(0.05,0,0,0.05,20,0)" xlink:href="#bD"/><use transform="matrix(0.05,0,0,0.05,25,0)" xlink:href="#bC"/><use transform="matrix(0.05,0,0,0.05,35,0)" xlink:href="#cv"/><use transform="matrix(0.05,0,0,0.05,45,0)" xlink:href="#bL"/><use transform="matrix(0.05,0,0,0.05,50.95,0)" xlink:href="#bJ"/><use transform="matrix(0.05,0,0,0.05,55.95,0)" xlink:href="#cr"/><use transform="matrix(0.05,0,0,0.05,66.9,0)" xlink:href="#bG"/><path d="M-.9.97h79.65v1.9H-.9z"/></g><g id="aS"><use transform="matrix(0.05,0,0,0.05,0,0)" xlink:href="#bX"/><use transform="matrix(0.05,0,0,0.05,12.950000000000001,0)" xlink:href="#bt"/><use transform="matrix(0.05,0,0,0.05,22.950000000000003,0)" xlink:href="#br"/><use transform="matrix(0.05,0,0,0.05,32.95,0)" xlink:href="#bt"/><use transform="matrix(0.05,0,0,0.05,42.95,0)" xlink:href="#bT"/><use transform="matrix(0.05,0,0,0.05,52.95,0)" xlink:href="#cb"/><use transform="matrix(0.05,0,0,0.05,62.95,0)" xlink:href="#bt"/><use transform="matrix(0.05,0,0,0.05,72.95,0)" xlink:href="#bT"/><use transform="matrix(0.05,0,0,0.05,82.95,0)" xlink:href="#cl"/></g><g id="aT"><use transform="matrix(0.05,0,0,0.05,0,0)" xlink:href="#cp"/><use transform="matrix(0.05,0,0,0.05,9,0)" xlink:href="#ck"/><use transform="matrix(0.05,0,0,0.05,19,0)" xlink:href="#bT"/><use transform="matrix(0.05,0,0,0.05,29,0)" xlink:href="#cl"/><use transform="matrix(0.05,0,0,0.05,34,0)" xlink:href="#cn"/><use transform="matrix(0.05,0,0,0.05,39.95,0)" xlink:href="#bp"/><use transform="matrix(0.05,0,0,0.05,49.95,0)" xlink:href="#bA"/><use transform="matrix(0.05,0,0,0.05,58.95,0)" xlink:href="#cl"/><use transform="matrix(0.05,0,0,0.05,63.95,0)" xlink:href="#bA"/></g><g id="aU"><use transform="matrix(0.05,0,0,0.05,0,0)" xlink:href="#cb"/><use transform="matrix(0.05,0,0,0.05,10,0)" xlink:href="#bt"/><use transform="matrix(0.05,0,0,0.05,20,0)" xlink:href="#by"/><use transform="matrix(0.05,0,0,0.05,25,0)" xlink:href="#bz"/><use transform="matrix(0.05,0,0,0.05,28.950000000000003,0)" xlink:href="#bT"/><use transform="matrix(0.05,0,0,0.05,38.95,0)" xlink:href="#bt"/><use transform="matrix(0.05,0,0,0.05,48.95,0)" xlink:href="#cb"/></g><g id="aV"><use transform="matrix(0.05,0,0,0.05,0,0)" xlink:href="#bP"/><use transform="matrix(0.05,0,0,0.05,12.950000000000001,0)" xlink:href="#bs"/><use transform="matrix(0.05,0,0,0.05,16.900000000000002,0)" xlink:href="#cm"/><use transform="matrix(0.05,0,0,0.05,26.900000000000002,0)" xlink:href="#bA"/><use transform="matrix(0.05,0,0,0.05,35.900000000000006,0)" xlink:href="#cl"/><use transform="matrix(0.05,0,0,0.05,40.900000000000006,0)" xlink:href="#bt"/><use transform="matrix(0.05,0,0,0.05,50.900000000000006,0)" xlink:href="#cn"/><use transform="matrix(0.05,0,0,0.05,56.85,0)" xlink:href="#cL"/><use transform="matrix(0.05,0,0,0.05,62.80000000000001,0)" xlink:href="#cj"/><use transform="matrix(0.05,0,0,0.05,72.80000000000001,0)" xlink:href="#bp"/><use transform="matrix(0.05,0,0,0.05,82.80000000000001,0)" xlink:href="#bA"/><use transform="matrix(0.05,0,0,0.05,91.80000000000001,0)" xlink:href="#bt"/><use transform="matrix(0.05,0,0,0.05,101.80000000000001,0)" xlink:href="#cb"/></g><g id="aW"><use transform="matrix(0.05,0,0,0.05,0,0)" xlink:href="#bp"/><use transform="matrix(0.05,0,0,0.05,10,0)" xlink:href="#bT"/><use transform="matrix(0.05,0,0,0.05,20,0)" xlink:href="#bT"/><use transform="matrix(0.05,0,0,0.05,30,0)" xlink:href="#ck"/><use transform="matrix(0.05,0,0,0.05,40,0)" xlink:href="#cl"/><use transform="matrix(0.05,0,0,0.05,45,0)" xlink:href="#bp"/><use transform="matrix(0.05,0,0,0.05,55,0)" xlink:href="#cl"/><use transform="matrix(0.05,0,0,0.05,60,0)" xlink:href="#bz"/><use transform="matrix(0.05,0,0,0.05,63.95,0)" xlink:href="#ck"/><use transform="matrix(0.05,0,0,0.05,73.95,0)" xlink:href="#bT"/></g><g id="aX"><use transform="matrix(0.05,0,0,0.05,0,0)" xlink:href="#bA"/><use transform="matrix(0.05,0,0,0.05,9,0)" xlink:href="#bt"/><use transform="matrix(0.05,0,0,0.05,19,0)" xlink:href="#cl"/></g><g id="aY"><use transform="matrix(0.05,0,0,0.05,0,0)" xlink:href="#bp"/><use transform="matrix(0.05,0,0,0.05,10,0)" xlink:href="#cl"/></g><g id="aZ"><use transform="matrix(0.05,0,0,0.05,0,0)" xlink:href="#bS"/><use transform="matrix(0.05,0,0,0.05,10,0)" xlink:href="#bz"/><use transform="matrix(0.05,0,0,0.05,13.949999999999998,0)" xlink:href="#bU"/><use transform="matrix(0.05,0,0,0.05,23.95,0)" xlink:href="#bS"/><use transform="matrix(0.05,0,0,0.05,33.95,0)" xlink:href="#bt"/><use transform="matrix(0.05,0,0,0.05,43.95,0)" xlink:href="#bA"/><use transform="matrix(0.05,0,0,0.05,52.95,0)" xlink:href="#cl"/></g><g id="ba"><use transform="matrix(0.05,0,0,0.05,0,0)" xlink:href="#cp"/><use transform="matrix(0.05,0,0,0.05,9,0)" xlink:href="#bs"/><use transform="matrix(0.05,0,0,0.05,12.949999999999998,0)" xlink:href="#cm"/><use transform="matrix(0.05,0,0,0.05,22.95,0)" xlink:href="#bA"/><use transform="matrix(0.05,0,0,0.05,31.950000000000003,0)" xlink:href="#cl"/><use transform="matrix(0.05,0,0,0.05,36.95,0)" xlink:href="#bt"/><use transform="matrix(0.05,0,0,0.05,46.95,0)" xlink:href="#cn"/><use transform="matrix(0.05,0,0,0.05,52.900000000000006,0)" xlink:href="#bz"/><use transform="matrix(0.05,0,0,0.05,56.85,0)" xlink:href="#bT"/><use transform="matrix(0.05,0,0,0.05,66.85000000000001,0)" xlink:href="#bU"/></g><g id="bb"><use transform="matrix(0.05,0,0,0.05,0,0)" xlink:href="#cn"/><use transform="matrix(0.05,0,0,0.05,5.95,0)" xlink:href="#bt"/><use transform="matrix(0.05,0,0,0.05,15.949999999999998,0)" xlink:href="#bA"/><use transform="matrix(0.05,0,0,0.05,24.95,0)" xlink:href="#ck"/><use transform="matrix(0.05,0,0,0.05,34.95,0)" xlink:href="#bs"/><use transform="matrix(0.05,0,0,0.05,38.900000000000006,0)" xlink:href="#cm"/><use transform="matrix(0.05,0,0,0.05,48.900000000000006,0)" xlink:href="#cl"/><use transform="matrix(0.05,0,0,0.05,53.900000000000006,0)" xlink:href="#bz"/><use transform="matrix(0.05,0,0,0.05,57.85,0)" xlink:href="#ck"/><use transform="matrix(0.05,0,0,0.05,67.85000000000001,0)" xlink:href="#bT"/></g><g id="bc"><use transform="matrix(0.05,0,0,0.05,0,0)" xlink:href="#cc"/><use transform="matrix(0.05,0,0,0.05,12.950000000000001,0)" xlink:href="#bX"/><use transform="matrix(0.05,0,0,0.05,25.900000000000002,0)" xlink:href="#bo"/></g><g id="bd"><use transform="matrix(0.05,0,0,0.05,0,0)" xlink:href="#by"/><use transform="matrix(0.05,0,0,0.05,5,0)" xlink:href="#bz"/><use transform="matrix(0.05,0,0,0.05,8.95,0)" xlink:href="#bs"/><use transform="matrix(0.05,0,0,0.05,12.899999999999999,0)" xlink:href="#bt"/></g><g id="be"><use transform="matrix(0.05,0,0,0.05,0,0)" xlink:href="#by"/><use transform="matrix(0.05,0,0,0.05,5,0)" xlink:href="#ck"/><use transform="matrix(0.05,0,0,0.05,15,0)" xlink:href="#cn"/></g><g id="bf"><use transform="matrix(0.05,0,0,0.05,0,0)" xlink:href="#bt"/><use transform="matrix(0.05,0,0,0.05,10,0)" xlink:href="#bp"/><use transform="matrix(0.05,0,0,0.05,20,0)" xlink:href="#cp"/><use transform="matrix(0.05,0,0,0.05,29,0)" xlink:href="#bS"/></g><g id="bg"><use transform="matrix(0.05,0,0,0.05,0,0)" xlink:href="#cj"/><use transform="matrix(0.05,0,0,0.05,10,0)" xlink:href="#bp"/><use transform="matrix(0.05,0,0,0.05,20,0)" xlink:href="#cl"/><use transform="matrix(0.05,0,0,0.05,25,0)" xlink:href="#cp"/><use transform="matrix(0.05,0,0,0.05,34,0)" xlink:href="#bS"/></g><g id="bh"><use transform="matrix(0.05,0,0,0.05,0,0)" xlink:href="#cp"/><use transform="matrix(0.05,0,0,0.05,9,0)" xlink:href="#ck"/><use transform="matrix(0.05,0,0,0.05,19,0)" xlink:href="#cn"/><use transform="matrix(0.05,0,0,0.05,24.95,0)" xlink:href="#cn"/><use transform="matrix(0.05,0,0,0.05,30.899999999999995,0)" xlink:href="#bt"/><use transform="matrix(0.05,0,0,0.05,40.9,0)" xlink:href="#cp"/><use transform="matrix(0.05,0,0,0.05,49.9,0)" xlink:href="#cl"/><use transform="matrix(0.05,0,0,0.05,54.900000000000006,0)" xlink:href="#bz"/><use transform="matrix(0.05,0,0,0.05,58.85,0)" xlink:href="#ck"/><use transform="matrix(0.05,0,0,0.05,68.85,0)" xlink:href="#bT"/></g><g id="bi"><use transform="matrix(0.05,0,0,0.05,0,0)" xlink:href="#bq"/><use transform="matrix(0.05,0,0,0.05,14.950000000000001,0)" xlink:href="#bt"/><use transform="matrix(0.05,0,0,0.05,24.950000000000003,0)" xlink:href="#cl"/><use transform="matrix(0.05,0,0,0.05,29.950000000000003,0)" xlink:href="#bS"/><use transform="matrix(0.05,0,0,0.05,39.95,0)" xlink:href="#ck"/><use transform="matrix(0.05,0,0,0.05,49.95,0)" xlink:href="#cb"/></g><g id="bj"><use transform="matrix(0.05,0,0,0.05,0,0)" xlink:href="#bQ"/><use transform="matrix(0.05,0,0,0.05,5,0)" xlink:href="#bT"/><use transform="matrix(0.05,0,0,0.05,15,0)" xlink:href="#cl"/><use transform="matrix(0.05,0,0,0.05,20,0)" xlink:href="#bt"/><use transform="matrix(0.05,0,0,0.05,30,0)" xlink:href="#bU"/><use transform="matrix(0.05,0,0,0.05,40,0)" xlink:href="#cn"/><use transform="matrix(0.05,0,0,0.05,45.95,0)" xlink:href="#bp"/><use transform="matrix(0.05,0,0,0.05,55.95,0)" xlink:href="#cl"/><use transform="matrix(0.05,0,0,0.05,60.95,0)" xlink:href="#bz"/><use transform="matrix(0.05,0,0,0.05,64.9,0)" xlink:href="#ck"/><use transform="matrix(0.05,0,0,0.05,74.9,0)" xlink:href="#bT"/></g><g id="bk"><use transform="matrix(0.05,0,0,0.05,0,0)" xlink:href="#cn"/><use transform="matrix(0.05,0,0,0.05,5.95,0)" xlink:href="#bt"/><use transform="matrix(0.05,0,0,0.05,15.949999999999998,0)" xlink:href="#br"/><use transform="matrix(0.05,0,0,0.05,25.950000000000003,0)" xlink:href="#ck"/><use transform="matrix(0.05,0,0,0.05,35.95,0)" xlink:href="#cn"/><use transform="matrix(0.05,0,0,0.05,41.900000000000006,0)" xlink:href="#cl"/></g><g id="bl"><use transform="matrix(0.05,0,0,0.05,0,0)" xlink:href="#by"/><use transform="matrix(0.05,0,0,0.05,5,0)" xlink:href="#ck"/><use transform="matrix(0.05,0,0,0.05,15,0)" xlink:href="#cn"/></g><g id="bm"><use transform="matrix(0.05,0,0,0.05,0,0)" xlink:href="#bt"/><use transform="matrix(0.05,0,0,0.05,10,0)" xlink:href="#bp"/><use transform="matrix(0.05,0,0,0.05,20,0)" xlink:href="#cp"/><use transform="matrix(0.05,0,0,0.05,29,0)" xlink:href="#bS"/></g><g id="bn"><use transform="matrix(0.05,0,0,0.05,0,0)" xlink:href="#cp"/><use transform="matrix(0.05,0,0,0.05,9,0)" xlink:href="#ck"/><use transform="matrix(0.05,0,0,0.05,19,0)" xlink:href="#bT"/><use transform="matrix(0.05,0,0,0.05,29,0)" xlink:href="#cl"/><use transform="matrix(0.05,0,0,0.05,34,0)" xlink:href="#cn"/><use transform="matrix(0.05,0,0,0.05,39.95,0)" xlink:href="#bp"/><use transform="matrix(0.05,0,0,0.05,49.95,0)" xlink:href="#bA"/><use transform="matrix(0.05,0,0,0.05,58.95,0)" xlink:href="#cl"/></g></defs></g></svg>
